<?xml version="1.0" encoding="utf-8"?>
<!-- Generator: Adobe Illustrator 21.0.0, SVG Export Plug-In . SVG Version: 6.00 Build 0)  -->
<svg version="1.1" id="Layer_1" xmlns="http://www.w3.org/2000/svg" xmlns:xlink="http://www.w3.org/1999/xlink" x="0px" y="0px"
	 viewBox="0 0 297 205" enable-background="new 0 0 297 205" xml:space="preserve">
<path fill-rule="evenodd" clip-rule="evenodd" fill="#E30016" d="M40.6,140.2v57H29.2v-39.7l-8,39.7h-6.6l-8.2-39v39h-4v-57h12
	l7,34.4l7-34.4H40.6z M64.4,139.2c11.9,0,17.8,9.8,17.8,29.5c0,19.7-6.1,29.5-18.2,29.5c-12.1,0-18.2-10.1-18.2-30.2
	C45.9,148.8,52.1,139.2,64.4,139.2L64.4,139.2z M64.1,143.7c-2.2,0-3.8,1.7-4.5,5.2c-0.8,3.4-1.2,10-1.2,19.8
	c0,9.8,0.4,16.3,1.2,19.8c0.8,3.4,2.3,5.2,4.5,5.2c2.2,0,3.7-1.7,4.5-5.2c0.8-3.4,1.2-10,1.2-19.8c0-9.7-0.4-16.3-1.2-19.8
	C67.8,145.5,66.3,143.7,64.1,143.7L64.1,143.7z M117.4,140.2v57h-9.1l-17.1-36.1v36.1h-4v-57h7.5l18.6,39v-39H117.4z M152.9,140.2
	v5.7h-10v51.3h-12.6v-51.3h-10.1v-5.7H152.9z M152.9,140.2"/>
<path fill-rule="evenodd" clip-rule="evenodd" fill="#1B1918" d="M156,197.2v-57h17.6c4.6,0,8.2,1.3,11,4c2.7,2.7,4.1,6.3,4.1,10.8
	c0,6.9-2.9,11.4-8.8,13.5c3,1.6,5,3.3,5.9,5.1c0.9,1.9,1.5,5.5,1.8,10.9c0.4,6.4,1.1,10.6,2.3,12.7h-12.9c-0.8-2.7-1.2-5.9-1.2-9.9
	l-0.1-3.4l-0.1-4.3c0-6.6-1.9-9.9-5.7-9.9h-2v27.4H156z M167.8,165.1h2.4c4.5,0,6.7-3.3,6.7-9.8c0-6.5-2.3-9.8-6.7-9.8h-2.4V165.1z
	 M221.2,140.2v5.7h-14.6v17.3h12.3v5.7h-12.3v22.6h17.1v5.7h-29v-57H221.2z M246,140.2l11.4,57h-11.9l-2.4-12.4h-12.3l-2.6,12.4
	h-4.6l12.1-57H246z M231.9,179.1h10l-4.8-25.3L231.9,179.1z M272.4,140.2v51.3h16.8v5.7h-28.7v-57H272.4z M272.4,140.2"/>
<path fill-rule="evenodd" clip-rule="evenodd" fill="#E30016" d="M95.2,127.6V31c0-5.6,1.8-10.4,5.3-14.5c3.5-4,7.8-6.1,12.7-6.1
	c4.3,0,8.2,1.7,11.8,5.2c3.5-3.5,7.4-5.2,11.8-5.2c4.9,0,9.2,2,12.8,6.1c3.6,4,5.4,8.9,5.4,14.5v96.6h-12.5V28.9
	c0-1.6-0.6-3.1-1.7-4.5c-1.2-1.3-2.5-2-3.9-2c-1.4,0-2.8,0.7-3.9,2c-1.2,1.3-1.7,2.8-1.7,4.5v98.7h-12.4V28.9c0-1.6-0.6-3.1-1.7-4.5
	c-1.2-1.3-2.5-2-3.9-2c-1.4,0-2.8,0.7-3.9,2c-1.2,1.3-1.7,2.8-1.7,4.5v98.7H95.2z M95.2,127.6"/>
<path fill-rule="evenodd" clip-rule="evenodd" fill="#1B1918" d="M196.1,113.5v14.1h-11.9c0-1.1,0.1-2.7,0.3-4.9
	c0.2-2.2,0.3-3.9,0.3-4.9c0-7.5-2-11.3-5.9-11.3c-1,0-2.8,0.5-5.3,1.6c-2.5,1-4.4,1.6-5.6,1.6v18h-11.9v-18H94.8l-12-11h73.2V23
	c11.3,0,21.2,13.6,28.4,24.2c6.4,9.3,9,20.8,9,32.2c0,8.6-1.8,15.3-5.4,20C193.4,102.9,196.1,107.5,196.1,113.5L196.1,113.5z
	 M178.9,79.4c0-12.5-3.7-22-11.1-28.3v47.5h2c3.1,0,5.5-2.5,7.3-7.6C178.3,87.3,178.9,83.4,178.9,79.4L178.9,79.4z M178.9,79.4"/>
<path fill-rule="evenodd" clip-rule="evenodd" fill="#E30016" d="M203.8,19.4c18.2,22.1,5.5,59.7-11.3,77
	c10.9-18.3,9.8-42.5-6.8-62.6c-16.8-20.3-40-27.9-64.5-25.6C146.7,0.9,185.6-2.7,203.8,19.4L203.8,19.4z M203.8,19.4"/>
<path fill-rule="evenodd" clip-rule="evenodd" fill="#E30016" d="M66.8,98.7h14.9l11.8,10.9H66.8V98.7z M66.8,98.7"/>
</svg>
