<svg xmlns="http://www.w3.org/2000/svg" width="30" height="22"><g fill="none"><path d="M0 6.794h4.68L0 3.481zm3.88 15.14h6.932v-4.91zm15.25-4.908v4.908h6.932zM0 15.206v3.314l4.683-3.314zM26.066.066h-6.934v4.91zm-.808 15.14l4.684 3.315v-3.315h-4.684zm.002-8.412h4.682V3.48zM10.812.066H3.88l6.933 4.91z" fill="#00247D"/><path d="M20.91 15.206l8.077 5.72a3.36 3.36 0 00.823-1.471l-6-4.25h-2.9zm-10.098 0h-1.78L.955 20.925a3.31 3.31 0 001.612.913l8.245-5.84v-.792zm8.318-8.412h1.78l8.077-5.719a3.312 3.312 0 00-1.611-.913l-8.247 5.84v.792zm-10.098 0L.955 1.075c-.392.404-.672.91-.824 1.471l6 4.248h2.9z" fill="#CF1B2B"/><path d="M29.942 13.523H17.466v8.411h1.663v-4.908l6.933 4.908h.553a3.3 3.3 0 002.372-1.008l-8.078-5.72h2.9l6.001 4.249c.077-.284.132-.577.132-.885v-.049l-4.684-3.315h4.684v-1.683zM0 13.523v1.683h4.683L0 18.52v.05c0 .918.365 1.748.955 2.355l8.077-5.72h1.78V16l-8.245 5.839c.244.058.497.096.76.096h.552l6.933-4.91v4.91h1.664v-8.41H0zM29.942 3.43a3.37 3.37 0 00-.955-2.355l-8.077 5.72h-1.78V6L27.375.162a3.293 3.293 0 00-.761-.096h-.552l-6.934 4.91V.065h-1.663v8.41h12.476v-1.68H25.26l4.682-3.314v-.05zM10.812.066v4.91L3.88.065h-.552c-.93 0-1.768.387-2.372 1.009l8.077 5.72h-2.9L.13 2.545A3.41 3.41 0 000 3.43v.05l4.68 3.314H0v1.683h12.476V.066h-1.664z" fill="#EEE"/><path fill="#CF1B2B" d="M17.466 8.477V.066h-4.99v8.41H0v5.048h12.476v8.411h4.99v-8.41h12.476V8.476z"/></g></svg>