<svg xmlns="http://www.w3.org/2000/svg" width="103" height="64"><defs><linearGradient id="a" x1="133.743%" x2="-189.189%" y1="43.729%" y2="66.875%"><stop offset="0%" stop-color="#F3E7D9"/><stop offset="15.38%" stop-color="#C2A264"/><stop offset="42.31%" stop-color="#EDD079"/><stop offset="59.89%" stop-color="#FADFAD"/><stop offset="70.33%" stop-color="#DBB47C"/><stop offset="87.36%" stop-color="#F0DAB9"/></linearGradient><linearGradient id="b" x1="-33.547%" x2="288.684%" y1="43.79%" y2="66.911%"><stop offset="0%" stop-color="#F3E7D9"/><stop offset="15.38%" stop-color="#C2A264"/><stop offset="42.31%" stop-color="#EDD079"/><stop offset="59.89%" stop-color="#FADFAD"/><stop offset="70.33%" stop-color="#DBB47C"/><stop offset="87.36%" stop-color="#F0DAB9"/></linearGradient><linearGradient id="c" x1="48.354%" x2="51.387%" y1="59.314%" y2="37.553%"><stop offset="0%" stop-color="#F3E7D9"/><stop offset="15.38%" stop-color="#C2A264"/><stop offset="42.31%" stop-color="#EDD079"/><stop offset="59.89%" stop-color="#FADFAD"/><stop offset="70.33%" stop-color="#DBB47C"/><stop offset="87.36%" stop-color="#F0DAB9"/></linearGradient><linearGradient id="d" x1="9.041%" x2="98.859%" y1="-2.237%" y2="112.314%"><stop offset="0%" stop-color="#F3E7D9"/><stop offset="15.38%" stop-color="#C2A264"/><stop offset="42.31%" stop-color="#EDD079"/><stop offset="59.89%" stop-color="#FADFAD"/><stop offset="70.33%" stop-color="#DBB47C"/><stop offset="87.36%" stop-color="#F0DAB9"/></linearGradient></defs><g fill="none"><path fill="url(#a)" d="M15.191 21.298l-14.769.493 4.258-8.553L0 4.57l12.026-.399z" transform="translate(0 20)"/><path fill="url(#b)" d="M87.79 21.507l14.769.493-4.258-8.572 4.68-8.649-12.026-.417z" transform="translate(0 20)"/><path fill="url(#c)" d="M87.828 18.947s-27.582-1.195-36.77-1.195c-8.937 0-35.79 1.195-35.79 1.195L12.18 1.309S41.334.114 51.059.114c9.955 0 39.857 1.195 39.857 1.195l-3.088 17.638z" transform="translate(0 20)"/><path fill="url(#d)" d="M84 32c0 17.67-14.33 32-32 32S20 49.67 20 32 34.311 0 52 0c17.67 0 32 14.33 32 32z"/><path fill="#1A0D0E" d="M21 32C21 15.436 34.66 2 51.5 2S81.98 15.436 82 32c0 16.564-13.66 29.981-30.5 30C34.66 61.981 21 48.564 21 32zm.575 0c0 8.122 3.352 15.49 8.755 20.804a30.064 30.064 0 0021.15 8.63c16.534 0 29.926-13.171 29.926-29.434 0-8.122-3.353-15.49-8.755-20.804A30.064 30.064 0 0051.5 2.566C34.966 2.565 21.575 15.736 21.575 32z"/><path fill="#010101" d="M51.509 18l.76 1.654 1.731.26-1.254 1.283.3 1.803-1.537-.855-1.555.855.3-1.803L49 19.914l1.731-.26zm5.928 2l1.048.958 1.418-.3-.621 1.276.718 1.202-1.437-.169-.97 1.033-.253-1.37-1.34-.583 1.282-.657zm-11.854 0l-1.068.958-1.418-.3.621 1.276L43 23.136l1.437-.169.97 1.033.273-1.37 1.32-.583-1.282-.657zM28.527 42.314l.678-1.107-.301-.08-.716.337-.15-.356 2.258-1.029.151.356-1.073.495 1.393.296.17.436-1.393-.337-.829 1.424zm1.675 3.244l.32-.395-.49-.85-.488.118-.208-.376 2.523-.593.226.415-1.694 2.057-.189-.376zm1.412-1.661l-1.205.296.377.673.828-.97zm.659 4.648l.678-2.037-1.375 1.167-.225-.297 1.9-1.622.227.297-.66 1.998 1.318-1.128.226.297-1.9 1.622zm2.277.692c.509-.573 1.205-.633 1.657-.197.301.296.32.672.226 1.008l-.358-.079a.667.667 0 00-.131-.653c-.302-.296-.772-.217-1.13.179-.358.395-.376.89-.075 1.186.17.159.414.178.621.1l.094.355c-.32.119-.678.139-.979-.158-.451-.415-.451-1.167.076-1.74zm1.845 3.403l1.43-2.097 1.15.87-.227.317-.847-.633-.376.534.828.633-.226.316-.847-.633-.395.594.847.652-.226.317zm2.541 1.78l1.186-2.255.32.178-1.016 1.919.79.454-.188.357zm3.954 1.958l.037-.514-.885-.376-.32.396-.376-.159 1.656-2.077.414.178-.15 2.71-.377-.158zm.169-2.215l-.772.989.697.296.075-1.285zm.245-.633l-.208-.1.603-.355.282.118-.677.337zm2.635 3.817l-.207-1.048-.358-.099-.226.93-.357-.1.602-2.492.885.238c.395.099.583.494.47.95-.113.434-.395.632-.659.612l.264 1.108-.414-.099zm.452-1.72c.056-.238-.057-.436-.245-.475l-.49-.119-.188.791.49.119c.188.04.376-.08.433-.317zm1.505 2.116l.358-2.552.358.06-.358 2.551zm1.864.217l.26-2.571.495.02-.26 2.571-.495-.02zm.547-2.789l-.313-.02.651-.514.417.02-.755.514zm4.159 2.374l.15-.376a.8.8 0 00.697.257c.301-.04.376-.237.358-.415-.076-.534-1.224-.02-1.337-.97-.056-.434.188-.79.64-.87.32-.04.602.04.81.258l-.151.356a.8.8 0 00-.64-.218c-.207.04-.32.178-.301.376.056.475 1.204 0 1.336.97.057.434-.132.83-.677.909a.918.918 0 01-.885-.277zm3.238-.218l-.622-2.492.358-.099.527 2.117.885-.238.094.376zm2.183-1.977c-.263-.713-.075-1.405.508-1.642.565-.238 1.186.118 1.45.83.263.713.056 1.405-.509 1.642-.583.238-1.185-.118-1.449-.83zm1.6-.673c-.188-.495-.583-.752-.96-.593-.395.158-.49.632-.301 1.127.188.494.583.771.96.593.395-.158.49-.633.301-1.127zm2.88-.079l-1.939-1.82.358-.218 1.543 1.484-.451-2.136.357-.218.527 2.67zm2.409-1.602l-1.487-2.058 1.13-.91.226.317-.829.673.377.534.828-.653.226.316-.828.653.414.574.828-.673.226.317zm3.464-3.185l-1.995-.514 1.242 1.305-.263.277-1.732-1.84.263-.276 1.94.494-1.206-1.266.264-.277 1.732 1.84zm1.092-1.8l-.15-.376a.847.847 0 00.677-.316c.188-.257.113-.455-.019-.554-.414-.336-.885.87-1.6.297-.32-.258-.395-.713-.113-1.088a.988.988 0 01.753-.416l.132.376a.764.764 0 00-.584.317c-.132.178-.113.375.038.474.358.297.866-.89 1.6-.296.32.257.452.692.113 1.147-.264.297-.565.435-.847.435zm2.823-3.719l-1.242.08.132.296.677.416-.188.336-2.127-1.306.188-.336 1.017.613-.603-1.345.226-.415.565 1.384 1.581-.118zm1.506-3.362l-.49-.04-.357.91.377.336-.151.396-1.958-1.78.17-.436 2.579.198-.17.416zm-2.09-.218l.942.83.282-.711-1.223-.119zM30.254 22l-.324-.152-1.07-1.734-.478.953-.344-.172.707-1.371.306.152 1.07 1.753.496-.972.344.172zm1.3-2.4l-2.064-1.39.44-.648c.363-.552 1.031-.629 1.643-.21.611.42.783 1.067.42 1.6l-.44.648zm-.191-1.943c-.402-.267-.86-.267-1.109.114l-.229.343 1.433.953.23-.343c.248-.362.076-.8-.325-1.067zm2.751-1.428l-1.013-.267-.248.267.707.61-.249.266-1.872-1.638.611-.686c.268-.305.688-.305 1.051 0 .325.286.363.629.23.857l1.07.248-.287.343zm-1.261-1.143c-.172-.153-.401-.153-.535.019l-.325.38.592.515.325-.381c.134-.152.115-.38-.057-.533zm1.7-.724l-.993-1.124.286-.248.994 1.105c.267.286.573.362.84.134.268-.229.23-.553-.038-.839l-.993-1.104.286-.248.994 1.124c.401.457.458.971 0 1.371-.478.4-.975.286-1.376-.171zm1.911-3.791l-.554-.266.172-.115.4.153-.018-.42.172-.113.076.609-.248.152zm1.012 2.59l-.21-.285-.133-2.038-.88.61-.21-.324 1.261-.876.192.285.114 2.057.898-.628.23.324-1.262.876zm2.312-1.485l-1.184-2.19 1.26-.686.192.343-.936.514.305.572.917-.496.191.343-.917.495.325.61.936-.514.191.343zm3.688-1.733l-1.682-1.257.65 1.657-.344.133-.917-2.305.382-.152 1.624 1.2-.63-1.6.343-.133.918 2.304zm1.547-.495l-.669-2.4.344-.096.67 2.4zm1.605-.419L46.17 6.59l1.413-.266.077.38-1.051.191.115.629 1.031-.19.077.38-1.032.19.115.686 1.05-.19.077.381zm6.687-.439l-.401-.952-.363-.019-.058.933-.363-.019.153-2.476.917.057c.42.02.67.362.65.82-.02.437-.287.666-.535.704l.459 1.01-.459-.058zm.134-1.714c.019-.247-.134-.4-.344-.419l-.497-.019-.038.781.497.02c.21.018.382-.115.382-.363zm1.471 1.886l.42-2.457 1.414.247-.057.381-1.051-.19-.115.628 1.032.172-.057.38-1.032-.17-.115.685 1.051.19-.057.382zm3.993.933l-.02-.514-.916-.267-.287.42-.401-.115 1.51-2.152.439.133.076 2.61-.401-.115zm-.02-2.152l-.706 1.028.726.21-.02-1.238zm1.338 2.628l.975-2.285.344.152-.822 1.943.86.362-.153.343zm2.255 1.029l1.184-2.19.325.171-1.184 2.19zm1.834 1.067l1.165-1.753-.535-.343.21-.323 1.376.895-.21.324-.535-.343-1.165 1.752zm2.847 2.152l.324-2.057-1.146 1.352-.286-.228 1.624-1.905.286.248-.306 2 1.128-1.315.286.229-1.624 1.905zm1.585 1.543l.765-.705.535-1.58.286.304-.401 1.143 1.185-.305.286.305-1.624.38-.764.706-.268-.248zm2.14-1.695l-.153-.172.688-.038.21.229-.745-.02zm.172 2.476c.63-.457 1.338-.362 1.7.133.249.343.192.705.039 1.01l-.344-.134c.115-.21.115-.457-.02-.628-.248-.343-.725-.362-1.146-.057-.42.304-.554.78-.305 1.104.134.172.382.248.611.21l.038.362c-.344.038-.707-.02-.955-.343-.382-.514-.248-1.219.382-1.657zm1.414 4.495l.955-.514-.516-.953-.955.515-.172-.324 2.197-1.2.172.324-.898.495.516.952.898-.495.172.324-2.197 1.2zM25.135 32.038c0-2.246 1.734-3.812 4.047-3.812 2.313 0 4.028 1.566 4.028 3.812 0 2.245-1.715 3.811-4.028 3.811-2.313 0-4.047-1.566-4.047-3.811zm6.09 0c0-1.208-.81-2.132-2.043-2.132s-2.062.924-2.062 2.132c0 1.188.81 2.132 2.062 2.132 1.253 0 2.043-.944 2.043-2.132zm4.78 3.679l-2.833-7.377h2.197l1.87 5.32 1.85-5.32h2.196l-2.833 7.377zm5.839 0V28.34h5.532V30H43.79v1.15h3.508v1.661H43.79v1.246h3.585v1.66h-5.532zm10.87 0l-1.272-2.472H50.44v2.472h-1.927V28.34h3.777c1.677 0 2.621 1.094 2.621 2.452 0 1.283-.79 1.963-1.503 2.208l1.542 2.717h-2.236zm.212-4.943c0-.51-.424-.793-.944-.793H50.44v1.585h1.542c.54.019.944-.264.944-.792zm3.064 4.943V28.34h5.532V30h-3.585v1.15h3.508v1.661h-3.508v1.246h3.585v1.66H55.99zm11.795 0l-3.18-4.283v4.283H62.66V28.34h2.004l3.045 4.056V28.34h1.966v7.377zm5.3 0v-2.981l-2.852-4.415h2.178l1.638 2.717 1.619-2.717h2.197l-2.852 4.415v2.981h-1.928zm1.157-8.057h-1.176l1.446-1.585h1.541l-1.811 1.585zM46.057 39.417c0-.887.72-1.495 1.612-1.495.55 0 .948.243 1.195.574l-.323.174c-.17-.244-.512-.418-.872-.418-.683 0-1.214.487-1.214 1.183 0 .678.531 1.182 1.214 1.182.36 0 .683-.174.872-.417l.323.157c-.266.33-.645.573-1.195.573-.91-.017-1.612-.626-1.612-1.513zm1.46-1.704l-.455-.626h.247l.398.452.38-.452h.246l-.455.626h-.36zm1.802 3.147v-2.886h.398v2.574h1.46v.313zm2.39 0v-2.886h2.067v.313h-1.67v.94h1.632v.312h-1.631v.991h1.669v.313h-2.067zm4.911 0l-1.839-2.312v2.313h-.398v-2.887h.398l1.82 2.26v-2.26H57v2.887z"/><path d="M33.724 24.097c3.21-6.311 9.965-10.664 17.756-10.664 5.462 0 10.396 2.13 13.978 5.577a19.173 19.173 0 013.779 5.087h.41c-3.25-6.519-10.16-11.022-18.186-11.022-8.007 0-14.937 4.503-18.187 11.022h.45zM69.57 40.168c-3.074 6.67-10.004 11.323-18.07 11.323-5.462 0-10.395-2.129-13.978-5.577a19.247 19.247 0 01-4.091-5.746H33c3.093 6.877 10.219 11.681 18.5 11.681s15.387-4.804 18.48-11.68h-.41z" fill="#1A0D0E"/></g></svg>