<?xml version="1.0" encoding="utf-8"?>
<!-- Generator: Adobe Illustrator 19.0.0, SVG Export Plug-In . SVG Version: 6.00 Build 0)  -->
<svg version="1.1" id="Layer_1" xmlns="http://www.w3.org/2000/svg" xmlns:xlink="http://www.w3.org/1999/xlink" x="0px" y="0px"
	 viewBox="-205 375 201 43" enable-background="new -205 375 201 43" xml:space="preserve">
<g>
	<path fill="#1D5532" d="M-177.3,403.6h-9.2l-0.7,2c-0.2,0.6-0.4,1.1-0.5,1.7c-0.1,0.6-0.2,1.1-0.2,1.7c0,1.4,0.7,2.2,2.2,2.3v1.4
		h-9.2v-1.4c0.5-0.1,1-0.2,1.4-0.6c0.4-0.3,0.8-0.7,1.1-1.3c0.3-0.6,0.7-1.3,1.1-2.4l9-24h5.8l7.1,24.2c0.3,1.1,0.6,1.8,0.8,2.3
		c0.2,0.5,0.5,0.8,0.8,1.1c0.3,0.3,0.8,0.5,1.4,0.6v1.4h-11.8v-1.4c0.7-0.1,1.3-0.3,1.7-0.6c0.4-0.3,0.5-0.8,0.5-1.4
		c0-0.4-0.1-0.9-0.2-1.5c-0.1-0.5-0.3-1.2-0.5-2.1L-177.3,403.6z M-185.6,401.1h7.8l-3.5-12.1L-185.6,401.1z"/>
	<path fill="#1D5532" d="M-154.2,403.2h-10.2v-4.5h10.2V403.2z"/>
	<path fill="#1D5532" d="M-143.2,410.2h6.2c0.8,0,1.5-0.2,2-0.5c0.5-0.3,1-0.8,1.4-1.5c0.4-0.7,0.8-1.9,1.2-3.6h2.9v8.2h-21.7v-1.4
		l13.8-25.4h-5.8c-0.9,0-1.7,0.2-2.2,0.5s-1,0.9-1.4,1.7c-0.4,0.8-0.7,1.8-1,3h-3v-7.9h21.4v1.4L-143.2,410.2z"/>
</g>
<g>
	<path fill="#8DC63F" d="M-104.8,412.7h-11.3v-1.4c0.5-0.1,1-0.3,1.3-0.5c0.3-0.2,0.5-0.4,0.7-0.7c0.2-0.3,0.2-0.7,0.3-1.1
		c0-0.5,0.1-1,0.1-1.7v-18.6c0-0.7,0-1.2-0.1-1.7c0-0.5-0.1-0.8-0.3-1.1c-0.2-0.3-0.4-0.5-0.7-0.7c-0.3-0.2-0.7-0.3-1.3-0.5v-1.4
		h12.6c1.7,0,3.1,0.1,4.3,0.4c1.2,0.2,2.2,0.6,3.1,1.1c0.7,0.4,1.4,0.9,1.9,1.5c0.5,0.6,0.9,1.3,1.2,2.1c0.3,0.8,0.4,1.8,0.4,2.8
		c0,1.4-0.2,2.6-0.7,3.6s-1.2,1.8-2,2.5c-0.8,0.7-2,1.3-3.4,1.9v0.2c1.1,0.5,1.9,1.1,2.6,1.8c0.7,0.8,1.3,1.7,1.9,2.9l1.4,2.9
		c0.6,1.3,1.2,2.3,1.8,2.9c0.6,0.7,1.3,1.1,2.1,1.2v1.4h-8.3c-0.8-1.1-1.8-2.9-2.8-5.1l-1.7-3.7c-0.5-1.1-0.9-1.9-1.3-2.3
		s-0.7-0.8-1.1-0.9c-0.4-0.2-1-0.3-1.8-0.3h-1.3v6.9c0,1.1,0.1,1.8,0.2,2.3c0.1,0.4,0.3,0.8,0.6,1c0.3,0.3,0.8,0.5,1.6,0.7
		C-104.8,411.1-104.8,412.7-104.8,412.7z M-107.1,385.9v12h2.1c1.1,0,2.1-0.2,2.8-0.5c0.7-0.3,1.3-0.7,1.8-1.3
		c0.4-0.6,0.7-1.2,0.9-2c0.2-0.7,0.2-1.6,0.2-2.5c0-2-0.5-3.4-1.4-4.4s-2.3-1.5-4.1-1.5C-105.9,385.8-106.7,385.8-107.1,385.9z"/>
</g>
<g>
	<path fill="#8DC63F" d="M-65.5,383.3v6.9h-3c-0.5-1.4-0.9-2.3-1.2-2.8s-0.7-0.9-1.2-1.1c-0.5-0.3-1.2-0.4-2.4-0.4H-78v10.4h2.8
		c0.6,0,1.1-0.1,1.5-0.3s0.7-0.5,0.9-0.9s0.5-1.1,0.7-1.9h2.4v8.8H-72c-0.2-0.8-0.4-1.5-0.7-1.9c-0.2-0.4-0.5-0.8-0.9-0.9
		c-0.3-0.2-0.8-0.3-1.5-0.3h-2.8v11.5h4.7c0.5,0,0.9,0,1.3-0.1c0.3-0.1,0.7-0.2,0.9-0.3c0.3-0.2,0.5-0.4,0.8-0.6
		c0.3-0.3,0.5-0.6,0.7-0.9c0.2-0.3,0.4-0.7,0.6-1.3c0.2-0.5,0.5-1.2,0.7-2.1h3l-0.4,7.9h-21.2v-1.4c0.5-0.1,1-0.3,1.3-0.5
		c0.3-0.2,0.5-0.4,0.7-0.7c0.2-0.3,0.2-0.7,0.3-1.1c0-0.5,0.1-1,0.1-1.7v-18.9c0-0.7,0-1.2-0.1-1.7c0-0.5-0.1-0.8-0.3-1.1
		c-0.2-0.3-0.4-0.5-0.7-0.7c-0.3-0.2-0.7-0.3-1.3-0.5v-1.4H-65.5z"/>
</g>
<g>
	<path fill="#8DC63F" d="M-46.4,403.6h-9.2l-0.7,2c-0.2,0.6-0.4,1.1-0.5,1.7c-0.1,0.6-0.2,1.1-0.2,1.7c0,1.4,0.7,2.2,2.2,2.3v1.4
		H-64v-1.4c0.5-0.1,1-0.2,1.4-0.6c0.4-0.3,0.8-0.7,1.1-1.3s0.7-1.3,1.1-2.4l9-24h5.8l7.1,24.2c0.3,1.1,0.6,1.8,0.8,2.3
		s0.5,0.8,0.8,1.1c0.3,0.3,0.8,0.5,1.4,0.6v1.4h-11.9v-1.4c0.7-0.1,1.3-0.3,1.7-0.6c0.4-0.3,0.5-0.8,0.5-1.4c0-0.4-0.1-0.9-0.2-1.5
		c-0.1-0.5-0.3-1.2-0.5-2.1L-46.4,403.6z M-54.8,401.1h7.8l-3.5-12.1L-54.8,401.1z"/>
</g>
<g>
	<path fill="#8DC63F" d="M-21.6,383.3v1.4c-0.5,0.1-0.9,0.3-1.2,0.5c-0.3,0.2-0.5,0.4-0.7,0.7c-0.2,0.3-0.3,0.7-0.3,1.1
		s-0.1,1-0.1,1.7v21.5h4.2c0.8,0,1.5-0.1,2-0.4c0.5-0.3,0.9-0.7,1.3-1.2c0.4-0.5,0.7-1.2,0.9-2.1c0.3-0.9,0.5-1.7,0.6-2.4h3
		l-0.5,8.7h-20.5v-1.4c0.5-0.1,1-0.3,1.3-0.5c0.3-0.2,0.5-0.4,0.7-0.7c0.2-0.3,0.2-0.7,0.3-1.1c0-0.5,0.1-1,0.1-1.7v-18.7
		c0-0.7,0-1.2-0.1-1.7c0-0.5-0.1-0.8-0.3-1.1c-0.2-0.3-0.4-0.5-0.7-0.7c-0.3-0.2-0.7-0.3-1.3-0.5v-1.4H-21.6z"/>
</g>
</svg>
