<svg xmlns="http://www.w3.org/2000/svg" width="821" height="90" viewBox="0 0 821 90">
  <g fill="none">
    <path fill="#238ECE" d="M739.363,59.5 C746.707,59.5 751.243,54.667 751.81,48.322 C751.999,46.108 751,44.623 748.678,44.623 L747.976,44.623 C745.4947,44.623 744.94714,45.8795802 744.6658,47.4461199 C744.26512,49.9657601 743.0512,52.3433801 739.36516,52.3433801 C736.53016,52.3433801 734.07316,50.8043801 734.07316,46.5383801 L734.07316,34.3073801 C734.07316,29.9333801 736.82716,28.5563801 739.36516,28.5563801 C742.88272,28.5563801 744.101501,30.6785802 744.609641,33.1847204 C744.919601,34.6567601 745.488221,35.8452998 747.976541,35.8452998 L748.705541,35.8452998 C750.919541,35.8452998 751.999541,34.6302998 751.810541,32.4162998 C751.243541,26.1792998 746.626541,21.4002998 739.363541,21.4002998 C731.830541,21.4002998 726.619541,26.8002998 726.619541,34.5492998 L726.619541,46.2942998 C726.619541,54.0702998 731.830541,59.4972998 739.363541,59.4972998 L739.363,59.5 Z M769.627985,59.5 C777.079985,59.5 782.371985,54.1 782.371985,46.351 L782.371985,34.606 C782.371985,26.83 777.079985,21.403 769.627985,21.403 C762.094985,21.403 756.883985,26.83 756.883985,34.606 L756.883985,46.351 C756.883985,54.1 762.094985,59.5 769.627985,59.5 Z M769.627985,52.372 C766.873985,52.372 764.335985,50.833 764.335985,46.594 L764.335985,34.309 C764.335985,29.908 767.008985,28.531 769.627985,28.531 C772.435985,28.531 774.892985,30.07 774.892985,34.336 L774.892985,46.621 C774.892985,50.995 772.165985,52.372 769.627985,52.372 Z M793.22397,59.5 C795.41097,59.5 796.59897,58.312 796.59897,56.125 L796.59897,37.603 L801.59397,49.672 C802.28247,51.4675 803.26797,52.372 804.99597,52.372 C806.72397,52.372 807.70947,51.4675 808.39743,49.672 L813.44643,37.468 L813.44643,56.125 C813.44643,58.312 814.63443,59.5 816.82143,59.5 L817.49643,59.5 C819.68343,59.5 820.87143,58.312 820.87143,56.125 L820.87143,24.778 C820.87143,22.591 819.68343,21.403 817.49643,21.403 L816.36243,21.403 C814.44543,21.403 813.17643,22.24 812.50143,24.076 L805.02243,42.949 L797.54343,24.076 C796.86843,22.24 795.59943,21.403 793.68243,21.403 L792.54843,21.403 C790.36143,21.403 789.17343,22.591 789.17343,24.778 L789.17343,56.125 C789.17343,58.312 790.36143,59.5 792.54843,59.5 L793.22397,59.5 Z"/>
    <path fill="#242324" d="M113.809829,60.0013403 L113.8105,60 L114.6815,60 C117.395,60 118.869,58.526 118.869,55.8125 L118.869,47.806 L124.57606,47.806 L129.387329,56.8175 C130.325329,58.995 131.899829,60 134.244829,60 L135.919829,60 C138.867829,60 139.939829,57.8895 138.499329,55.042 L132.886739,45.1742401 C137.464849,42.7923899 140.341829,38.0869802 140.341829,31.1578403 L140.341829,29.8513403 C140.341829,18.8298403 134.010329,12.7328403 124.563329,12.7328403 L113.809829,12.7328403 C111.096329,12.7328403 109.622329,14.2068403 109.622329,16.9203403 L109.622329,55.8138403 C109.622329,58.5273403 111.096329,60.0013403 113.809829,60.0013403 Z M123.457829,39.0303403 L118.868329,39.0303403 L118.868329,21.6103403 L123.457829,21.6103403 C127.578329,21.6103403 131.196329,23.1848403 131.196329,29.7173403 L131.196329,31.0573403 C131.196329,37.2883403 127.444329,39.0303403 123.457829,39.0303403 Z M160.4065,60 C168.949,60 174.0745,54.841 174.242,49.3805 C174.33245,47.6385 172.835,46.801 170.557,46.801 L169.954,46.801 C167.4616,46.801 166.80098,47.8026498 166.2824,49.1245595 C165.605699,51.4199791 163.92266,52.7961587 160.40918,52.7961587 C157.52818,52.7961587 154.98218,51.0541587 154.98218,47.1681587 L154.98218,43.7511587 L170.42568,43.7511587 C173.13918,43.7511587 174.61318,42.2771587 174.61318,39.5636587 L174.61318,36.8836587 C174.61318,27.6711587 169.35368,22.3446587 160.40918,22.3446587 C151.43118,22.3446587 146.20518,28.0731587 146.20518,37.2521587 L146.20518,45.2586587 C146.20518,54.2701587 151.43118,59.9986587 160.40918,59.9986587 L160.4065,60 Z M165.83618,37.6206587 L154.98218,37.6206587 L154.98218,35.3426587 C154.98218,31.3226587 157.32718,29.6141587 160.40918,29.6141587 C163.52468,29.6141587 165.83618,31.2221587 165.83618,35.6106587 L165.83618,37.6206587 Z M204.8585,60.0341707 C207.505,60.0341707 208.979,58.5601707 208.979,55.8466707 L208.979,26.5341707 C208.979,23.8206707 207.505,22.3466707 204.8585,22.3466707 L204.8585,22.346 C202.212,22.346 200.738,23.82 200.738,26.5335 L200.738,27.0614603 C199.89514,25.2002004 196.96054,22.3466707 191.828339,22.3466707 C185.195339,22.3466707 180.605839,26.2661707 180.605839,35.9811707 L180.605839,46.3661707 C180.605839,56.0141707 185.061339,60.0341707 191.828339,60.0341707 C196.96054,60.0341707 199.89514,57.2094504 200.738,55.3254107 L200.738,55.8466707 C200.738,58.6271707 202.212,60.0341707 204.8585,60.0341707 Z M194.842,52.4296707 C191.5925,52.4296707 189.4485,50.3526707 189.4485,45.6626707 L189.4485,36.6511707 C189.4485,32.0281707 191.626,29.9511707 194.842,29.9511707 C197.9575,29.9511707 200.2355,31.9611707 200.2355,36.5171707 L200.2355,45.6626707 C200.2355,50.3191707 198.058,52.4296707 194.842,52.4296707 Z M376.3765,22.346 L376.613852,22.3507247 C379.11098,22.4371422 380.497,23.9028979 380.497,26.5341707 L380.497,26.5341707 L380.497,55.8466707 C380.497,58.5601707 379.023,60.0341707 376.3765,60.0341707 C373.73,60.0341707 372.256,58.6271707 372.256,55.8466707 L372.256,55.8466707 L372.256,55.3254107 C371.41314,57.2094504 368.47854,60.0341707 363.346339,60.0341707 C356.579339,60.0341707 352.123839,56.0141707 352.123839,46.3661707 L352.123839,46.3661707 L352.123839,35.9811707 C352.123839,26.2661707 356.713339,22.3466707 363.346339,22.3466707 C368.47854,22.3466707 371.41314,25.2002004 372.256,27.0614603 L372.256,27.0614603 L372.256,26.5335 C372.256,23.82 373.73,22.346 376.3765,22.346 L376.3765,22.346 Z M623.4345,22.346 L623.671852,22.3507247 C626.090945,22.4344416 627.467289,23.8126352 627.550948,26.29091 L627.555,26.5341707 L627.555,55.8466707 C627.555,58.5601707 626.081,60.0341707 623.4345,60.0341707 C620.868197,60.0341707 619.40441,58.7111514 619.318052,56.0956587 L619.314,55.8466707 L619.314,55.3254107 C618.47114,57.2094504 615.53654,60.0341707 610.404339,60.0341707 C603.732649,60.0341707 599.307805,56.1266126 599.184485,46.7704878 L599.181839,46.3661707 L599.181839,35.9811707 C599.181839,26.2661707 603.771339,22.3466707 610.404339,22.3466707 C615.417186,22.3466707 618.333458,25.0690214 619.251801,26.9300434 L619.314,27.0614603 L619.314,26.5335 C619.314,23.82 620.788,22.346 623.4345,22.346 Z M710.4265,22.346 L710.663852,22.3507247 C713.082945,22.4344416 714.459289,23.8126352 714.542948,26.29091 L714.547,26.5341707 L714.547,55.8466707 C714.547,58.5601707 713.073,60.0341707 710.4265,60.0341707 C707.860197,60.0341707 706.39641,58.7111514 706.310052,56.0956587 L706.306,55.8466707 L706.306,55.3254107 C705.46314,57.2094504 702.52854,60.0341707 697.396339,60.0341707 C690.724649,60.0341707 686.299805,56.1266126 686.176485,46.7704878 L686.173839,46.3661707 L686.173839,35.9811707 C686.173839,26.2661707 690.763339,22.3466707 697.396339,22.3466707 C702.409186,22.3466707 705.325458,25.0690214 706.243801,26.9300434 L706.306,27.0614603 L706.306,26.5335 C706.306,23.82 707.78,22.346 710.4265,22.346 Z M424.54718,22.3446587 C433.49168,22.3446587 438.75118,27.6711587 438.75118,36.8836587 L438.75118,36.8836587 L438.75118,39.5636587 C438.75118,42.2771587 437.27718,43.7511587 434.56368,43.7511587 L434.56368,43.7511587 L419.12018,43.7511587 L419.12018,47.1681587 C419.12018,51.0541587 421.66618,52.7961587 424.54718,52.7961587 C428.06066,52.7961587 429.743699,51.4199791 430.4204,49.1245595 C430.93898,47.8026498 431.5996,46.801 434.092,46.801 L434.092,46.801 L434.695,46.801 C436.973,46.801 438.47045,47.6385 438.38,49.3805 C438.2125,54.841 433.087,60 424.5445,60 L424.5445,60 C415.56918,59.9986587 410.34318,54.2701587 410.34318,45.2586587 L410.34318,45.2586587 L410.34318,37.2521587 C410.34318,28.0731587 415.56918,22.3446587 424.54718,22.3446587 Z M674.6175,22.346 C677.248773,22.346 678.714528,23.7320202 678.800946,26.2902393 L678.805,26.5335 L678.805,55.8125 C678.805,58.4437727 677.41898,59.9095285 674.860761,59.9959459 L674.6175,60 L674.249,60 C671.617727,60 670.151972,58.6139798 670.065554,56.0557607 L670.0615,55.8125 L670.0615,26.5335 C670.0615,23.9022273 671.44752,22.4364715 674.005739,22.3500541 L674.249,22.346 L674.6175,22.346 Z M640.584,9.38150002 C643.215273,9.38150002 644.681028,10.7675202 644.767446,13.3257393 L644.7715,13.569 L644.7715,37.5885 L647.753,37.5885 L653.984,25.562 C654.823893,23.4622679 656.317933,22.4216314 658.556233,22.3499784 L658.808,22.346 L659.679,22.346 C662.823533,22.346 664.078435,24.3317146 662.817387,27.0818225 L662.7275,27.2705 L655.0225,41.0725 L662.828,55.0755 C664.236489,57.8924778 663.114793,59.9087642 660.151863,59.9969858 L659.947,60 L658.8415,60 C656.547946,60 655.03314,59.0655038 654.116855,57.0162872 L654.0175,56.784 L647.753,44.858 L644.7715,44.858 L644.7715,55.8125 C644.7715,58.4437727 643.38548,59.9095285 640.827261,59.9959459 L640.584,60 L640.1485,60 C637.517227,60 636.051472,58.6139798 635.965054,56.0557607 L635.961,55.8125 L635.961,13.569 C635.961,10.9377273 637.34702,9.47197155 639.905239,9.3855541 L640.1485,9.38150002 L640.584,9.38150002 Z M285.867,12.7315 C288.5805,12.7315 290.0545,14.2055 290.0545,16.919 L290.0545,16.919 L290.0545,17.455 C290.0545,20.1685 288.5805,21.6425 285.867,21.6425 L285.867,21.6425 L272.8355,21.6425 L272.8355,32.3625 L281.4115,32.3625 C284.125,32.3625 285.599,33.7695 285.599,36.3825 C285.599,38.9955 284.125,40.436 281.4115,40.436 L281.4115,40.436 L272.8355,40.436 L272.8355,51.1225 L285.867,51.1225 C288.5805,51.1225 290.0545,52.5965 290.0545,55.31 L290.0545,55.31 L290.0545,55.8125 C290.0545,58.526 288.5805,60 285.867,60 L285.867,60 L267.8105,60 C265.097,60 263.623,58.526 263.623,55.8125 L263.623,55.8125 L263.623,16.919 C263.623,14.2055 265.097,12.7315 267.8105,12.7315 L267.8105,12.7315 L285.867,12.7315 Z M569.134839,22.346 C571.531206,22.346 573.095516,23.4704361 573.698253,25.7562252 L573.75717,25.9968304 L579.48567,48.2073304 L585.14717,25.9968304 C585.68279,23.5985208 587.154397,22.4254449 589.49118,22.3499046 L589.736,22.346 L590.54,22.346 C593.481463,22.346 594.860523,24.0359465 594.148343,26.8247859 L594.091,27.036 L585.113,56.4825 C584.466103,58.7789828 582.976011,59.9199744 580.672874,59.9959329 L580.423,60 L578.447839,60 C576.086667,60 574.537461,58.9381974 573.830375,56.6939817 L573.757839,56.449 L564.813339,27.036 C564.029439,24.227025 565.219987,22.43712 567.950287,22.3493804 L568.163339,22.346 L569.134839,22.346 Z M309.446488,22.3453304 C316.648988,22.3453304 321.338988,25.1593304 322.946988,30.6868304 C323.774438,33.1845903 322.128919,35.0136905 319.432169,35.0136905 L319.432169,35.0136905 L319.094489,35.0136905 C316.856689,35.0136905 315.91802,34.0569306 315.11938,32.6666806 C314.14788,30.4597004 312.47087,29.448 309.5155,29.448 C306.467,29.448 304.792,30.855 304.792,33.0995 C304.792,40.235 323.9205,36.3825 323.9205,48.7775 C323.9205,55.9465 318.929,60 309.75,60 L309.75,60 L309.374707,59.9976306 C302.523602,59.8862408 297.293981,56.7182689 295.780499,51.2236707 C294.942999,48.6776707 296.617999,46.8351707 299.532499,46.8351707 L299.532499,46.8351707 L299.842709,46.8351707 C301.873479,46.8351707 302.826889,47.6947808 303.681808,49.1466707 C304.782618,51.4079207 306.750408,52.7633304 309.881988,52.7633304 C312.896988,52.7633304 315.074488,51.2558304 315.074488,48.7098304 C315.074488,42.2108304 296.113488,46.0968304 296.113488,33.2663304 C296.113488,26.4993304 301.171988,22.3453304 309.446488,22.3453304 Z M545.5185,22.346 C554.279191,22.346 559.581714,27.9899902 559.719738,36.7345692 L559.7225,37.086 L559.7225,45.059 C559.7225,54.2715 554.396,60 545.5185,60 C536.590968,60 531.449155,54.419326 531.317108,45.4161608 L531.3145,45.059 L531.3145,37.086 C531.3145,28.1415 536.4735,22.346 545.5185,22.346 Z M337.854671,14.6765099 C339.697171,14.6765099 340.735671,15.6145099 340.735671,17.8255099 L340.735671,17.8255099 L340.735671,22.3480099 L343.583171,22.3480099 C346.296671,22.3480099 347.636671,23.7215099 347.636671,26.2005099 C347.636671,28.6795099 346.296671,30.0530099 343.683671,30.0530099 L343.683671,30.0530099 L340.735671,30.0530099 L340.735671,45.0610099 C340.735671,50.2126399 341.524931,51.5198095 344.777781,52.0256597 C346.497671,52.48863 347.80283,53.35762 347.80283,55.8466696 C347.80283,58.7293357 346.467685,59.9343493 343.498704,59.9973795 L343.498704,59.9973795 L343.248,60 L342.907381,59.9966623 C334.114722,59.8580517 331.959342,54.3289253 331.959342,45.7953304 L331.959342,45.7953304 L331.959342,30.0221905 L331.475602,30.0221905 C329.438132,30.0221905 328.309182,28.7605804 328.309182,26.5006707 C328.309182,24.1221707 329.716182,23.4856707 331.927182,22.3131707 C332.599861,22.0116707 333.145911,21.575501 333.568011,20.9798711 C333.987431,20.3889306 334.286921,19.6452302 334.471171,18.7300099 C335.174671,16.0835099 335.945171,14.6765099 337.854671,14.6765099 Z M396.072671,14.6765099 C397.915171,14.6765099 398.953671,15.6145099 398.953671,17.8255099 L398.953671,17.8255099 L398.953671,22.3480099 L401.801171,22.3480099 C404.514671,22.3480099 405.854671,23.7215099 405.854671,26.2005099 C405.854671,28.6795099 404.514671,30.0530099 401.901671,30.0530099 L401.901671,30.0530099 L398.953671,30.0530099 L398.953671,45.0610099 C398.953671,50.2126399 399.742931,51.5198095 402.995781,52.0256597 C404.715671,52.48863 406.02083,53.35762 406.02083,55.8466696 C406.02083,58.7293357 404.685685,59.9343493 401.716704,59.9973795 L401.716704,59.9973795 L401.466,60 L401.125381,59.9966623 C392.332722,59.8580517 390.177342,54.3289253 390.177342,45.7953304 L390.177342,45.7953304 L390.177342,30.0221905 L389.693602,30.0221905 C387.656132,30.0221905 386.527182,28.7605804 386.527182,26.5006707 C386.527182,24.1221707 387.934182,23.4856707 390.145182,22.3131707 C390.817861,22.0116707 391.363911,21.575501 391.786011,20.9798711 C392.205431,20.3889306 392.504921,19.6452302 392.689171,18.7300099 C393.392671,16.0835099 394.163171,14.6765099 396.072671,14.6765099 Z M519.7595,9.38150001 C522.390773,9.38150001 523.856528,10.7675202 523.942946,13.3257393 L523.947,13.569 L523.947,55.8125 C523.947,58.4437727 522.56098,59.9095285 520.002761,59.9959459 L519.7595,60 L519.2905,60 C516.659227,60 515.193472,58.6139798 515.107054,56.0557607 L515.103,55.8125 L515.103,13.569 C515.103,10.9377273 516.48902,9.47197154 519.047239,9.38555409 L519.2905,9.38150001 L519.7595,9.38150001 Z M492.15733,12.731499 C499.79533,12.731499 505.45683,16.952499 507.06483,24.154999 C507.816538,26.9330478 506.400012,28.8182946 503.499631,28.9086053 L503.27933,28.911999 L503.01133,28.911999 C500.7072,28.911999 499.70823,27.7676389 498.937061,26.1871091 C497.86171,23.3630595 495.5951,21.3758393 492.02534,21.3758393 C488.40734,21.3758393 486.02884,23.3523393 486.02884,26.6018393 C486.02884,30.6379196 490.03477,31.6033899 494.60551,32.7088899 C500.73936,34.2103601 507.97,35.9912202 507.97,45.662 C507.97,54.2806474 502.020682,59.7178414 492.78838,59.9893341 L492.422247,59.9973634 L492.058,60 L491.686984,59.9965829 C483.79921,59.851029 477.900039,55.0667374 476.54767,48.073999 C475.861328,45.1652185 477.34322,43.4043262 480.153427,43.3201594 L480.36667,43.316999 L480.63467,43.316999 C483.29256,43.316999 484.27679,44.5223293 484.997709,46.2040298 C486.03353,49.3443194 488.41873,51.3214891 492.32349,51.3214891 C496.00849,51.3214891 498.72199,49.3784891 498.72199,45.8944891 C498.72199,41.9696289 494.75224,40.9606091 490.215,39.7820793 C484.10125,38.1693889 476.88133,36.2243789 476.88133,26.600499 C476.88133,18.024499 482.77733,12.731499 492.15733,12.731499 Z M222.0415,9.38150002 C224.755,9.38150002 226.229,10.8555 226.229,13.569 L226.229,13.569 L226.229,55.8125 C226.229,58.526 224.755,60 222.0415,60 L222.0415,60 L221.5725,60 C218.859,60 217.385,58.526 217.385,55.8125 L217.385,55.8125 L217.385,13.569 C217.385,10.8555 218.859,9.38150002 221.5725,9.38150002 L221.5725,9.38150002 L222.0415,9.38150002 Z M366.36,29.9511707 C363.144,29.9511707 360.9665,32.0281707 360.9665,36.6511707 L360.9665,36.6511707 L360.9665,45.6626707 C360.9665,50.3526707 363.1105,52.4296707 366.36,52.4296707 C369.576,52.4296707 371.7535,50.3191707 371.7535,45.6626707 L371.7535,45.6626707 L371.7535,36.5171707 C371.7535,31.9611707 369.4755,29.9511707 366.36,29.9511707 Z M700.41,29.9511707 C697.263913,29.9511707 695.111665,31.9388479 695.019575,36.3532755 L695.0165,36.6511707 L695.0165,45.6626707 C695.0165,50.3526707 697.1605,52.4296707 700.41,52.4296707 C703.556087,52.4296707 705.708335,50.4099341 705.800425,45.9627503 L705.8035,45.6626707 L705.8035,36.5171707 C705.8035,31.9611707 703.5255,29.9511707 700.41,29.9511707 Z M613.418,29.9511707 C610.271913,29.9511707 608.119665,31.9388479 608.027575,36.3532755 L608.0245,36.6511707 L608.0245,45.6626707 C608.0245,50.3526707 610.1685,52.4296707 613.418,52.4296707 C616.564087,52.4296707 618.716335,50.4099341 618.808425,45.9627503 L618.8115,45.6626707 L618.8115,36.5171707 C618.8115,31.9611707 616.5335,29.9511707 613.418,29.9511707 Z M545.5185,30.2185 C542.508174,30.2185 540.200968,31.9123789 540.095285,35.705954 L540.0915,35.9805 L540.0915,46.2985 C540.0915,50.352 542.47,52.1275 545.5185,52.1275 C548.3995,52.1275 550.832576,50.4317874 550.941682,46.5713509 L550.9455,46.2985 L550.9455,35.9805 C550.9455,31.994 548.5335,30.2185 545.5185,30.2185 Z M424.54718,29.6141587 C421.46518,29.6141587 419.12018,31.3226587 419.12018,35.3426587 L419.12018,35.3426587 L419.12018,37.6206587 L429.97418,37.6206587 L429.97418,35.6106587 C429.97418,31.2221587 427.66268,29.6141587 424.54718,29.6141587 Z M463.01125,33.45525 C465.72475,33.45525 467.19875,34.92925 467.19875,37.64275 L467.19875,38.01125 C467.19875,40.72475 465.72475,42.19875 463.01125,42.19875 L453.73225,42.19875 C451.01875,42.19875 449.54475,40.72475 449.54475,38.01125 L449.54475,37.64275 C449.54475,34.92925 451.01875,33.45525 453.73225,33.45525 L463.01125,33.45525 Z M249.01125,33.45525 C251.72475,33.45525 253.19875,34.92925 253.19875,37.64275 L253.19875,38.01125 C253.19875,40.72475 251.72475,42.19875 249.01125,42.19875 L239.73225,42.19875 C237.01875,42.19875 235.54475,40.72475 235.54475,38.01125 L235.54475,37.64275 C235.54475,34.92925 237.01875,33.45525 239.73225,33.45525 L249.01125,33.45525 Z M674.45,7.472 C677.4315,7.472 679.81,9.8505 679.81,12.7985 C679.81,15.7465 677.4315,18.0915 674.45,18.0915 C671.502,18.0915 669.1235,15.7465 669.1235,12.7985 C669.1235,9.8505 671.502,7.472 674.45,7.472 Z"/>
    <path fill="#238ECE" d="M38.4761,-6.39488462e-14 C59.7261,0.004 76.945193,17.223 76.9491,38.473 C76.9491,45.09 75.2733,51.3206 72.328,56.762 L72.328,56.762 L86.7764,71.2113 C88.9171,73.348 90.003006,76.1878 89.9991209,78.9925 C90.003,81.7972 88.9131,84.6371 86.7725,86.7777 C84.6358,88.9184 81.796,90.004306 78.9913,90.0004209 C76.1827,90.0043 73.3467,88.9183 71.2061,86.7777 L71.2061,86.7777 L56.7531,72.3287 C51.3201,75.2662 45.0933,76.942 38.4761,76.942 C17.2221,76.942 0.003006,59.719 -0.0009,38.473 C0.0031,17.223 17.2221,0.003906 38.4761,-6.39488462e-14 Z M67.579,63.5859 C66.3485,65.0117 65.0126,66.3476 63.5829,67.582 L63.5829,67.582 L76.9929,80.992 C77.5554,81.55059 78.25852,81.816214 78.9929,81.82012 C79.7312,81.81621 80.43041,81.55449 80.989,80.9959 C81.5515,80.4295 81.813214,79.73028 81.81712,78.992 C81.81322,78.2576 81.54759,77.5584 80.989,76.9959 L80.989,76.9959 Z M38.477,8.1838 C30.098,8.1838 22.5511,11.5666 17.055,17.0549 C11.5667,22.5469 8.187806,30.094 8.1839,38.4729 C8.1839,46.8519 11.5667,54.3948 17.055,59.8909 C22.551,65.3792 30.0981,68.758093 38.477,68.762 C46.856,68.7581 54.4029,65.3792 59.899,59.8909 C65.3873,54.3949 68.766194,46.8518 68.7701,38.4729 C68.7701,30.0939 65.3873,22.5471 59.899,17.0549 C54.403,11.5705 46.8559,8.187706 38.477,8.1838 Z"/>
    <path fill="#238ECE" stroke="#238ECE" d="M43.4440372,21.6147778 C42.08042,20.2480531 40.2589944,19.5532633 38.473226,19.5564707 C36.6842991,19.5532583 34.8661151,20.2479949 33.5024147,21.6147778 L24.0644811,31.0584342 C22.4086245,32.7173695 21.4768,33.9638843 21.4768,36.3078027 L21.4768,48.5312207 C21.4800465,52.4139821 22.6196194,53.5532519 26.5027618,53.5564932 L50.4508382,53.5564932 C54.3339806,53.5564932 55.4768,52.4139821 55.4768,48.5312207 L55.4768,36.3078027 C55.4768,33.9638843 54.5449755,32.7141283 52.8891189,31.0584342 L43.4440372,21.6147778 Z M50.746,48.555 L50.47256,48.82844 L42.56236,48.82844 L42.56236,41.46904 C42.56236,39.20734 40.73036,37.37924 38.47256,37.37924 C36.21086,37.37924 34.38276,39.21124 34.38276,41.46904 L34.38276,48.82844 L26.47256,48.82844 L26.19912,48.555 L26.203026,37.461 C26.203026,36.81256 26.460836,36.1876 26.921776,35.7266 L38.280776,24.3676 L38.472186,24.285568 L38.663596,24.363693 L50.026596,35.726693 C50.487536,36.187633 50.745346,36.812593 50.745346,37.461093 L50.746,48.555 Z"/>
  </g>
</svg>
