<svg xmlns="http://www.w3.org/2000/svg" width="16" height="12" viewBox="0 0 16 12">
    <g fill="#00204E" fill-rule="nonzero">
        <circle cx="7.71" cy="5.82" r="1.17"/>
        <path d="M7.71 2.4a3.424 3.424 0 0 0-3.42 3.42 3.424 3.424 0 0 0 3.42 3.42 3.424 3.424 0 0 0 3.42-3.42A3.424 3.424 0 0 0 7.71 2.4zm0 5.64a2.222 2.222 0 0 1-2.22-2.22c0-1.224.996-2.22 2.22-2.22 1.224 0 2.22.996 2.22 2.22 0 1.224-.996 2.22-2.22 2.22z"/>
        <path d="M14.971 4.51a11.598 11.598 0 0 0-2.68-2.839C10.808.562 9.26.001 7.693.001c-1.565 0-3.113.56-4.6 1.666A11.68 11.68 0 0 0 .394 4.502a2.396 2.396 0 0 0 0 2.636 11.68 11.68 0 0 0 2.697 2.835C4.58 11.08 6.128 11.64 7.693 11.64c2.41 0 4.348-1.344 5.55-2.47a.6.6 0 1 0-.822-.876c-1.043.979-2.71 2.146-4.728 2.146-2.913 0-5.328-2.49-6.296-3.961a1.197 1.197 0 0 1 0-1.318c.968-1.47 3.383-3.96 6.296-3.96 2.913 0 5.314 2.492 6.273 3.964a1.2 1.2 0 0 1 0 1.31.6.6 0 0 0 1.005.655 2.401 2.401 0 0 0 0-2.62z"/>
    </g>
</svg>
