<svg xmlns="http://www.w3.org/2000/svg" width="62" height="62" viewBox="0 0 62 62">
  <path fill="#ffffff" d="M32.332,59.578 C32.332,60.9156337 31.2476337,62 29.91,62 L15.742,62 C10.401,62 6.055,57.654 6.055,52.313 L6.055,28.86 L4.133,30.778 C3.67916463,31.2315019 3.06358377,31.4858652 2.422,31.485 C1.4423337,31.4849089 0.559198645,30.8946556 0.184441032,29.9895022 C-0.190316581,29.0843487 0.0171146231,28.042572 0.71,27.35 L26.175,1.937 C26.208,1.904 26.242,1.873 26.275,1.842 C29.0369209,-0.620848373 33.2092733,-0.61223315 35.961,1.862 C35.998,1.895 36.033,1.929 36.068,1.964 L56.458,22.642 C57.3968841,23.5941389 57.3861389,25.1271159 56.434,26.066 C55.4818611,27.0048841 53.9488841,26.9941389 53.01,26.042 L32.68,5.426 C31.7763728,4.65365023 30.4455921,4.65195496 29.54,5.422 L10.895,24.029 C10.895,24.053 10.898,24.075 10.898,24.099 L10.898,52.313 C10.9013059,54.9868968 13.0681032,57.1536941 15.742,57.157 L29.91,57.157 C30.5522624,57.1567347 31.1683101,57.4116865 31.622552,57.8657408 C32.0767939,58.3197952 32.3320001,58.9357376 32.332,59.578 Z M51.586,30.517 C47.54,30.517 45.071,32.202 43.594,33.98 C42.116,32.202 39.648,30.517 35.602,30.517 C29.567,30.517 25.187,35.116 25.187,41.452 C25.187,48.111 30.839,52.323 35.825,56.041 C38.161,57.783 40.368,59.428 41.705,61.094 C42.164903,61.6665168 42.8596389,61.9995653 43.594,61.9995653 C44.3283611,61.9995653 45.023097,61.6665168 45.483,61.094 C46.391,59.962 47.636,58.923 48.847,57.969 C49.8726705,57.1339109 50.0387327,55.6304171 49.2200351,54.5916159 C48.4013374,53.5528147 46.9006699,53.3629002 45.849,54.165 C45.073872,54.7666629 44.3226285,55.3984813 43.597,56.059 C42.157,54.719 40.471,53.463 38.72,52.157 C34.448,48.973 30.031,45.68 30.031,41.452 C30.031,37.809 32.27,35.36 35.601,35.36 C37.759,35.36 39.277,36.089 40.243,37.587 C40.7336896,38.3695238 41.0530335,39.2471233 41.18,40.162 C41.2619748,41.4349876 42.3183757,42.425549 43.594,42.425549 C44.8696243,42.425549 45.9260252,41.4349876 46.008,40.162 C46.022,40.038 46.181,38.772 46.945,37.587 C47.911,36.089 49.429,35.36 51.586,35.36 C54.918,35.36 57.156,37.809 57.156,41.452 C57.156,43.482 56.113,45.467 53.872,47.702 C53.2383539,48.3085425 52.9821716,49.2102816 53.2022752,50.0593727 C53.4223787,50.9084638 54.0843656,51.5721927 54.9328753,51.794527 C55.781385,52.0168614 56.6837943,51.7630499 57.292,51.131 C59.313,49.115 62,45.92 62,41.452 C62,35.116 57.62,30.517 51.586,30.517 L51.586,30.517 Z"/>
</svg>
