<svg xmlns="http://www.w3.org/2000/svg" width="30" height="22"><g fill="none"><path fill="#EEE" d="M26.667.007H3.333C1.493.007 0 1.52 0 3.389v15.222c0 1.868 1.492 3.382 3.333 3.382h23.334c1.84 0 3.333-1.514 3.333-3.382V3.389C30 1.521 28.508.007 26.667.007z"/><path fill="#0A4EA2" d="M30 15.228H0V6.772h30z"/><path fill="#EE2024" d="M0 18.61c0 1.869 1.492 3.383 3.333 3.383h23.334c1.84 0 3.333-1.514 3.333-3.382v-3.383H0v3.383z"/><path fill="#FFF" d="M9.864 16.995c-.94-.545-3.031-1.926-3.795-3.795-.771-1.883-.6-4.587-.402-7.716l.05-.791h9.97l.05.79c.198 3.13.37 5.831-.4 7.716-.766 1.87-2.856 3.251-3.797 3.796l-.836.484-.84-.484z"/><path fill="#EE2024" d="M14.905 5.538H6.5c-.199 3.134-.351 5.65.34 7.337.85 2.08 3.763 3.569 3.859 3.617v.004l.005-.001.004.001v-.004c.096-.048 3.008-1.537 3.86-3.617.69-1.688.537-4.203.338-7.337"/><g fill="#FFF"><path d="M11.224 13.37a.375.375 0 01-.372.378h-.505a.375.375 0 01-.373-.378s.234-3.427.234-4.379c0-.951-.234-2.66-.234-2.66 0-.209.167-.378.373-.378h.505c.205 0 .372.17.372.378 0 0-.208 1.602-.208 2.634 0 1.031.208 4.405.208 4.405"/><path d="M8.797 8.661a.375.375 0 01-.372-.378v-.512c0-.21.166-.378.372-.378 0 0 .874.171 1.75.171s1.854-.171 1.854-.171c.205 0 .372.169.372.378v.512a.375.375 0 01-.372.378s-.787-.225-1.855-.225c-1.067 0-1.749.225-1.749.225M7.95 10.67a.375.375 0 01-.372-.378v-.513c0-.209.167-.378.373-.378 0 0 1.58.146 2.674.146 1.093 0 2.596-.146 2.596-.146.206 0 .372.17.372.378v.513a.375.375 0 01-.372.378s-1.535-.113-2.733-.113c-1.197 0-2.537.113-2.537.113"/></g><path fill="#0A4EA2" d="M14.233 13.507c-.424-.918-1.588-1.178-2.14-.055-.365-1.348-1.401-1.348-1.401-1.348s-1.037 0-1.402 1.348c-.548-1.114-1.7-.867-2.13.034 1.094 1.754 3.452 2.963 3.538 3.006v.005l.005-.003.004.003v-.005c.086-.043 2.425-1.242 3.526-2.985"/></g></svg>