<svg xmlns="http://www.w3.org/2000/svg" width="19" height="16" viewBox="0 0 19 16">
    <path fill="#FFF" fill-rule="nonzero" d="M13.792.258c-2.023 0-3.257.843-3.996 1.732C9.057 1.101 7.823.258 5.8.258 2.783.258.593 2.558.593 5.726c0 3.33 2.826 5.436 5.319 7.294 1.168.871 2.271 1.694 2.94 2.527a1.211 1.211 0 0 0 1.889 0c.454-.566 1.076-1.086 1.682-1.563a1.211 1.211 0 0 0-1.5-1.902c-.375.296-.758.609-1.125.948-.72-.67-1.563-1.299-2.439-1.951-2.135-1.593-4.344-3.24-4.344-5.353 0-1.822 1.12-3.046 2.785-3.046 1.079 0 1.838.364 2.32 1.114a3.27 3.27 0 0 1 .47 1.287 1.21 1.21 0 0 0 2.413 0c.007-.062.087-.695.469-1.287.483-.75 1.242-1.114 2.32-1.114 1.666 0 2.785 1.224 2.785 3.046 0 1.015-.522 2.007-1.642 3.125a1.21 1.21 0 0 0 1.71 1.714C17.655 9.558 19 7.96 19 5.726 19 2.558 16.81.258 13.792.258z"/>
</svg>
