<svg xmlns="http://www.w3.org/2000/svg" width="19" height="19" viewBox="0 0 19 19">
    <path fill="#FFF" fill-rule="nonzero" stroke="#FFF" d="M7.973 1a6.98 6.98 0 0 1 6.972 6.973 6.941 6.941 0 0 1-1.61 4.453l4.469 4.439a.664.664 0 0 1-.936.942l-4.476-4.445a6.94 6.94 0 0 1-4.42 1.583 6.977 6.977 0 0 1-3.413-.891.664.664 0 1 1 .651-1.158 5.646 5.646 0 0 0 8.407-4.923 5.65 5.65 0 0 0-5.644-5.645 5.65 5.65 0 0 0-5.645 5.645c0 .98.255 1.946.738 2.792a.664.664 0 0 1-1.154.658A6.974 6.974 0 0 1 7.972 1z"/>
</svg>