<svg xmlns="http://www.w3.org/2000/svg" width="80" height="80" viewBox="0 0 80 80">
  <g fill="none" fill-rule="evenodd">
    <circle cx="40" cy="40" r="40" fill="#01204E" fill-opacity=".8"/>
    <path fill="#FFF" fill-rule="nonzero" d="M28,37.7118629 C28,31.2892103 33.2749875,26 40.000095,26 C46.7015875,26 52,31.3396104 52,37.7118629 C52,38.3396801 51.9313781,38.9773254 51.7986327,39.6259186 C51.1990406,42.5572444 49.3304848,45.5868503 46.5978483,48.6254162 C45.4515101,49.9007347 44.2253126,51.091829 42.999144,52.1702231 C42.5705307,52.5475799 42.1700539,52.8844485 41.8100682,53.1764891 C41.5918277,53.354771 41.4320833,53.4805417 41.3702234,53.5264898 C40.5973774,54.149939 39.4195621,54.156491 38.6647154,53.5549266 C38.574719,53.4860213 38.4149746,53.3602395 38.1956109,53.1819659 C37.8356253,52.8899253 37.4362716,52.5530567 37.0065352,52.1746079 C35.7792146,51.0961578 34.5530171,49.9039715 33.4055269,48.628681 C30.6763751,45.5945951 28.8077905,42.5672292 28.2047425,39.6401035 C28.0697479,38.9871422 28,38.3440089 28,37.7118237 L28,37.7118629 Z M40.000095,42.3329919 C42.650482,42.3329919 44.8002874,40.2439358 44.8002874,37.6670628 C44.8002874,35.0890978 42.6505108,33.0000137 40.000095,33.0000137 C37.3496792,33.0000137 35.1999027,35.0890698 35.1999027,37.6670628 C35.1999027,40.2439358 37.3496792,42.3329919 40.000095,42.3329919 L40.000095,42.3329919 Z"/>
  </g>
</svg>
