<svg xmlns="http://www.w3.org/2000/svg" width="15" height="16" viewBox="0 0 15 16">
    <path fill="#00204E" fill-rule="nonzero" d="M7.822 15.375c0 .345-.262.625-.586.625H3.81c-1.293 0-2.344-1.121-2.344-2.5V7.448L1 7.943a.567.567 0 0 1-.414.182c-.15 0-.3-.06-.415-.183a.655.655 0 0 1 .001-.884L6.332.5a1.676 1.676 0 0 1 2.393.007l4.934 5.336a.655.655 0 0 1-.005.884.56.56 0 0 1-.829-.007L7.906 1.4a.558.558 0 0 0-.76-.001L2.637 6.2V13.5c0 .69.526 1.25 1.173 1.25h3.427c.324 0 .586.28.586.625zm4.658-7.5c-.978 0-1.576.435-1.933.894-.358-.459-.955-.894-1.934-.894-1.46 0-2.52 1.187-2.52 2.822 0 1.719 1.368 2.806 2.574 3.765.566.45 1.1.874 1.423 1.304.111.148.28.234.457.234a.573.573 0 0 0 .457-.234c.22-.292.52-.56.814-.806a.654.654 0 0 0 .097-.878.562.562 0 0 0-.823-.104 9.255 9.255 0 0 0-.544.489c-.349-.346-.757-.67-1.18-1.007-1.034-.822-2.102-1.672-2.102-2.763 0-.94.541-1.572 1.347-1.572.522 0 .89.188 1.123.575.185.306.224.632.227.664.02.329.275.585.584.585.309 0 .564-.256.584-.585.003-.032.042-.358.227-.664.233-.387.6-.575 1.123-.575.806 0 1.347.632 1.347 1.572 0 .524-.252 1.036-.795 1.613a.655.655 0 0 0 0 .884.56.56 0 0 0 .828.001C14.35 12.675 15 11.85 15 10.697c0-1.635-1.06-2.822-2.52-2.822z"/>
</svg>
