<svg xmlns="http://www.w3.org/2000/svg" width="21" height="21" viewBox="0 0 21 21">
    <path fill="#ffffff" fill-rule="nonzero" d="M21 2.46v3.487a.82.82 0 0 1-1.64 0V2.801L14.32 7.84a.817.817 0 0 1-1.16 0 .82.82 0 0 1 0-1.16l5.04-5.04h-3.147a.82.82 0 1 1 0-1.64h3.486A2.464 2.464 0 0 1 21 2.46zm-.955 12.327c-1.145-1.105-2.105-1.743-3.02-2.007-1.262-.365-2.43-.033-3.472.985l-.005.004-1.11 1.102c-.69-.387-2.03-1.24-3.496-2.706l-.108-.108C7.378 10.601 6.52 9.253 6.13 8.561l1.1-1.11c.002 0 .004-.002.005-.004 1.018-1.042 1.35-2.21.985-3.472C7.956 3.06 7.318 2.1 6.213.955A3.107 3.107 0 0 0 4.08.002 3.107 3.107 0 0 0 1.88.8l-.023.02a.81.81 0 0 0-.032.031C.62 2.054-.01 3.74 0 5.725c.017 3.373 1.87 7.23 4.958 10.317l.008.008a20 20 0 0 0 1.959 1.704.82.82 0 0 0 .998-1.301 18.356 18.356 0 0 1-1.805-1.571l-.007-.008c-2.785-2.787-4.456-6.21-4.47-9.157-.008-1.529.452-2.805 1.33-3.692l.006-.006a1.476 1.476 0 0 1 2.055.075c2.124 2.202 1.97 3.242 1.032 4.204L4.544 7.83a.82.82 0 0 0-.168.912c.039.086.973 2.15 3.298 4.476l.108.108c2.326 2.325 4.39 3.26 4.476 3.298a.82.82 0 0 0 .912-.167l1.532-1.52c.962-.94 2.002-1.093 4.204 1.03.577.557.61 1.46.075 2.056l-.006.006c-.88.87-2.142 1.33-3.655 1.33h-.037c-1.209-.006-2.609-.337-4.048-.958a.82.82 0 1 0-.65 1.506c1.664.718 3.242 1.086 4.69 1.093h.046c1.965 0 3.634-.63 4.829-1.826l.03-.032.021-.023a3.106 3.106 0 0 0 .797-2.198 3.107 3.107 0 0 0-.953-2.134z"/>
</svg>
