<svg xmlns="http://www.w3.org/2000/svg" width="31" height="31" viewBox="0 0 31 31">
  <g fill="#238ECE">
    <path d="M18.225,23.734 L12.775,23.734 C12.1061832,23.734 11.564,24.2761832 11.564,24.945 C11.564,25.6138168 12.1061832,26.156 12.775,26.156 L18.225,26.156 C18.8938168,26.156 19.436,25.6138168 19.436,24.945 C19.436,24.2761832 18.8938168,23.734 18.225,23.734 Z"/>
    <circle cx="25.49" cy="15.682" r="1.211"/>
    <path d="M29.79,18.89 C30.4582645,18.89 31,18.3482645 31,17.68 L31,15.076 C30.9966941,12.4021032 28.8298968,10.2353059 26.156,10.232 L24.28,10.232 L24.28,1.211 C24.2802654,0.889914821 24.1529007,0.581889621 23.925953,0.354754275 C23.6990052,0.127618929 23.3910853,-4.13820223e-07 23.07,-4.13820223e-07 L7.931,-4.13820223e-07 C7.60991482,-4.13820223e-07 7.30188962,0.127099262 7.07475428,0.354047047 C6.84761893,0.580994833 6.71999989,0.888914711 6.72,1.21 L6.72,10.232 L4.844,10.232 C2.17010321,10.2353059 0.00330587248,12.4021032 0,15.076 L0,23.734 C0.00330587248,26.4078968 2.17010321,28.5746941 4.844,28.578 L6.72,28.578 L6.72,29.789 C6.72,30.458 7.262,30.9999996 7.93,30.9999996 L23.067,30.9999996 C23.3880852,30.9999996 23.6961104,30.8729007 23.9232457,30.645953 C24.1503811,30.4190052 24.2780001,30.1110853 24.278,29.79 L24.278,28.578 L26.155,28.578 C28.8292873,28.575245 30.996693,26.4082867 31,23.734 C31,23.0651832 30.4578168,22.523 29.789,22.523 C29.1201832,22.523 28.578,23.0651832 28.578,23.734 C28.5763471,25.0709484 27.4929484,26.1543471 26.156,26.156 L24.28,26.156 L24.28,21.131 L24.946,21.131 C25.6148168,21.131 26.157,20.5888168 26.157,19.92 C26.157,19.2511832 25.6148168,18.709 24.946,18.709 L6.055,18.709 C5.38618317,18.709 4.844,19.2511832 4.844,19.92 C4.844,20.5888168 5.38618317,21.131 6.055,21.131 L6.721,21.131 L6.721,26.156 L4.844,26.156 C3.5070516,26.1543471 2.42365294,25.0709484 2.422,23.734 L2.422,15.076 C2.42365294,13.7390516 3.5070516,12.6556529 4.844,12.654 L26.156,12.654 C27.4929484,12.6556529 28.5763471,13.7390516 28.578,15.076 L28.578,17.68 C28.578,18.348 29.12,18.89 29.789,18.89 L29.79,18.89 Z M9.142,21.13 L21.856,21.13 L21.856,28.578 L9.143,28.578 L9.143,21.131 L9.142,21.13 Z M21.856,10.232 L9.143,10.232 L9.143,2.422 L21.857,2.422 L21.857,10.232 L21.856,10.232 Z"/>
  </g>
</svg>
