<svg xmlns="http://www.w3.org/2000/svg" width="20" height="20"><path fill="#00204E" d="M18.436 7.729a1.56 1.56 0 00-.694-1.298l-6.874-4.603a1.558 1.558 0 00-1.738 0L2.256 6.431a1.56 1.56 0 00-.694 1.298v11.49a.781.781 0 01-1.562 0V7.729a3.12 3.12 0 011.386-2.596L8.261.53a3.115 3.115 0 013.476 0l6.875 4.603a3.119 3.119 0 011.386 2.596.781.781 0 01-1.562 0zm.78 3.123a.781.781 0 00-.78.781v7.586a.781.781 0 001.562 0v-7.586a.781.781 0 00-.781-.78zm-3.114 2.217c.498.52.771 1.184.771 1.893v4.257c0 .431-.35.781-.78.781h-2.066a.781.781 0 01-.781-.781v-.39H6.752v.39c0 .431-.35.781-.78.781H3.905a.781.781 0 01-.781-.781v-4.24c0-.718.285-1.375.755-1.879a.792.792 0 01.04-.082l1.467-2.645c.547-.977 1.62-1.583 2.802-1.583h3.62c1.182 0 2.255.607 2.8 1.582l1.48 2.67.013.027zm-9.35-1.935l-.542.976h7.576l-.542-.978c-.264-.473-.828-.78-1.436-.78h-3.62c-.607 0-1.17.307-1.437.782zm8.559 3.827c0-.71-.68-1.289-1.517-1.289h-7.59c-.837 0-1.517.587-1.517 1.308v2.286h2.911l.65-.95a.781.781 0 01.645-.339h2.243c.25 0 .486.12.633.323l.7.966h2.842V14.96zm-1.836-.234a.781.781 0 100 1.562.781.781 0 000-1.562zm-6.991 0a.781.781 0 100 1.562.781.781 0 000-1.562z"/></svg>