<svg xmlns="http://www.w3.org/2000/svg" width="14" height="20"><path fill="#00204E" stroke="#00204E" stroke-width=".9" d="M13.102 11.869c-.176-1.03-.57-1.973-.964-2.827-1.183-2.607-2.607-4.973-4.01-7.165l-.176-.307C7.711 1.198 7.427 1 7.098 1c-.482 0-.79.438-.876.57v.022l-.307.482c-.548.877-1.118 1.797-1.666 2.717-.854 1.446-1.928 3.374-2.716 5.434-.263.68-.504 1.359-.526 2.104-.087 1.929.614 3.55 2.06 4.82a6.07 6.07 0 004.01 1.535 6.03 6.03 0 005.215-2.958c.744-1.228 1.029-2.543.81-3.857h0zm-1.512 3.44a5.193 5.193 0 01-4.514 2.563c-1.271 0-2.52-.46-3.484-1.315-1.249-1.095-1.862-2.52-1.796-4.185.022-.614.219-1.206.481-1.84.767-2.016 1.82-3.901 2.652-5.325A67.539 67.539 0 016.595 2.51l.285-.46c0-.023.022-.023.022-.044a.781.781 0 01.176-.197s.066.022.175.197l.176.285c1.358 2.148 2.782 4.492 3.944 7.055.372.833.744 1.71.898 2.63.217 1.14-.024 2.258-.68 3.331h-.001z"/></svg>