<svg xmlns="http://www.w3.org/2000/svg" width="16" height="20"><path fill="#00204E" stroke="#00204E" stroke-width=".7" d="M15.423 11.865a.901.901 0 00-.592-.606c-.264-2.349-2.149-4.027-3.481-5.213a20.32 20.32 0 01-.75-.687c-.283-.28-1.145-1.132.012-2.982a.899.899 0 00-.914-1.364c-1.849.314-3.576 1.432-4.864 3.149a9.515 9.515 0 00-1.479 2.887.896.896 0 00-.611-.149.898.898 0 00-.7.493c-1.401 2.688-1.392 6.064.026 8.406C3.318 17.863 5.54 19 8.323 19c3.133 0 4.85-1.412 5.739-2.598 1.358-1.809 1.524-3.978 1.361-4.536h0zm-7.1 6.235C1.94 18.1.743 11.818 2.85 7.794c-.094 1.084.363 1.915.997 2.21-.132-3.899 2.68-7.54 6.001-8.104-.861 1.378-1.113 2.882.119 4.098 1.422 1.404 4.619 3.512 3.883 6.795-.01.046.03.08.097.08.149 0 .436-.17.611-.757.13.444-.264 5.984-6.236 5.984h0zm3.915-4.834c-.186-1.397-1.356-2.358-2.18-3.034a13.357 13.357 0 01-.467-.395c-.189-.172-.763-.696-.082-1.889a.45.45 0 00-.483-.663c-1.727.366-3.15 1.965-3.605 3.831a.45.45 0 00-.746.103c-.765 1.614-.682 3.601.206 4.943.739 1.12 1.975 1.726 3.497 1.726.077 0 .156-.001.235-.005 1.835-.073 2.805-.938 3.296-1.65.739-1.072.796-2.357.693-2.664a.447.447 0 00-.364-.303h0zm-1.215 2.648c-.55.666-1.372 1.026-2.446 1.069-1.322.053-2.341-.403-2.946-1.318-.512-.776-.69-1.826-.52-2.85.127.13.277.236.446.306a.449.449 0 00.622-.45c-.128-1.712.808-3.424 2.157-4.175-.16.774.058 1.466.649 2.004.148.136.32.277.503.427.933.766 2.095 1.72 1.838 3.124a.487.487 0 00.328.549 3.226 3.226 0 01-.631 1.314h0z"/></svg>