<svg xmlns="http://www.w3.org/2000/svg" width="12" height="21"><path fill="#00204E" stroke="#00204E" stroke-width=".2" d="M11.167 7.054a.695.695 0 00-.605-.349H8.074L9.748.984a.63.63 0 00-.116-.605A.693.693 0 009.074.1H2.61A.722.722 0 001.91.73l-.906 9.697a.662.662 0 00.186.535c.14.14.325.233.511.233h2.163L2.61 19.1a.72.72 0 00.441.767c.07.024.163.047.233.047a.733.733 0 00.605-.326L11.144 7.8a.775.775 0 00.023-.745h0zM4.54 15.845l.838-5.256c.023-.21-.024-.419-.163-.558a.696.696 0 00-.535-.256H2.446l.79-8.302H8.12L6.446 7.194a.63.63 0 00.116.605c.14.186.35.279.558.279h2.14l-4.72 7.767z"/></svg>