<svg xmlns="http://www.w3.org/2000/svg" width="20" height="20"><path fill="#00204E" stroke="#00204E" stroke-width=".9" d="M10 19a9 9 0 110-18 9 9 0 010 18zm0-.546A8.454 8.454 0 0018.454 10 8.454 8.454 0 0010 1.546 8.454 8.454 0 001.546 10 8.454 8.454 0 0010 18.454zm0-2.181a6.273 6.273 0 110-12.546 6.273 6.273 0 010 12.546zm2.727-11.31a5.693 5.693 0 00-2.454-.684v11.442a5.693 5.693 0 002.454-.684V4.963zm.546.337v9.4a5.72 5.72 0 002.454-4.7c0-1.946-.97-3.666-2.454-4.7h0zm-6 9.737c.736.4 1.568.642 2.454.684V4.28a5.693 5.693 0 00-2.455.683v10.074zm-.546-.337V5.3A5.72 5.72 0 004.273 10c0 1.946.97 3.666 2.454 4.7h0z"/></svg>