<svg xmlns="http://www.w3.org/2000/svg" width="21" height="20" viewBox="0 0 21 20">
    <path fill="#00204E" fill-rule="nonzero" d="M20.4 15.69c.799.76.799 2 0 2.761 0 .002-.002.003-.003.004l-1.4 1.32a.837.837 0 0 1-.576.225.837.837 0 0 1-.582-.232.756.756 0 0 1 .007-1.105l.82-.772H5.525c-1.805 0-3.275-1.402-3.275-3.125V2.209l-.816.77A.847.847 0 0 1 .277 2.97a.756.756 0 0 1 .008-1.105L1.668.564c.796-.75 2.09-.75 2.886 0l1.384 1.302a.756.756 0 0 1 .007 1.105.837.837 0 0 1-.582.232.837.837 0 0 1-.575-.225l-.9-.846v12.634c0 .861.735 1.562 1.638 1.562h13.222l-.902-.85a.756.756 0 0 1-.007-1.105.847.847 0 0 1 1.157-.007l1.4 1.32.005.003zM18.545 0H7.942c-.454 0-.82.352-.82.784.003.43.369.778.82.778h10.602c.452 0 .819.35.819.782V12.5c0 .43.364.78.815.781.454.002.822-.348.822-.781V2.344C21 1.049 19.9 0 18.544 0zm-6.468 13.394c.452 0 .819-.35.819-.781V9.136c0-1.185-1.01-2.149-2.252-2.149-.544 0-1.043.185-1.432.493a2.307 2.307 0 0 0-1.433-.493c-.313 0-.61.061-.88.172a.837.837 0 0 0-.553-.206c-.452 0-.819.35-.819.781v4.883c0 .432.367.781.819.781.452 0 .819-.35.819-.78V9.135c0-.323.275-.586.614-.586.338 0 .614.263.614.586v3.481c0 .432.366.781.819.781.452 0 .818-.35.818-.78V9.135c0-.323.276-.586.614-.586.339 0 .614.263.614.586v3.477c0 .431.367.781.819.781zm3.715-9.175h-.025c-1.042 0-1.889.81-1.889 1.804 0 .431.367.781.819.781.452 0 .819-.35.819-.781a.25.25 0 0 1 .25-.242h.026a.25.25 0 0 1 .25.226c-.016.057-.141.41-.926 1.234-.487.51-.965.927-.97.93a.757.757 0 0 0-.213.86c.122.302.426.5.764.5h2.21c.453 0 .82-.35.82-.781 0-.432-.367-.781-.82-.781h-.281c.727-.817 1.054-1.425 1.054-1.946 0-.995-.847-1.804-1.888-1.804z"/>
</svg>
