<svg xmlns="http://www.w3.org/2000/svg" width="26" height="26" viewBox="0 0 26 26">
    <path fill="#FFF" fill-rule="nonzero" d="M25.623 13.051v8.6c0 2.205-1.794 3.999-4 3.999H4.025c-2.206 0-4-1.794-4-4V4.052c0-2.206 1.794-4 4-4h11.449a1 1 0 0 1 0 2H4.024c-1.102 0-2 .897-2 2V21.65c0 1.103.898 2 2 2h17.599c1.103 0 2-.897 2-2v-8.599a1 1 0 1 1 2 0zm-2.295-7.307a.989.989 0 0 1 0 1.41l-4.01 3.986a1 1 0 0 0 1.41 1.418l4.01-3.985c.57-.567.885-1.32.885-2.124 0-.802-.314-1.557-.885-2.124L20.728.341a1 1 0 1 0-1.41 1.418l4.01 3.985zm-2.155.658a1 1 0 0 0-1-1 13.41 13.41 0 0 0-9.545 3.953 13.41 13.41 0 0 0-3.954 9.546v.75a1 1 0 0 0 2 0v-.75c0-6.341 5.159-11.5 11.5-11.5a1 1 0 0 0 .999-1z"/>
</svg>
