<svg xmlns="http://www.w3.org/2000/svg" width="31" height="31" viewBox="0 0 31 31">
    <g fill="#FFF" fill-rule="nonzero">
        <path d="M25.793 20.586c-1.61 0-3.05.734-4.007 1.885l-4.051-2.015a1.211 1.211 0 0 0-1.079 2.168l4.058 2.018A5.213 5.213 0 0 0 25.793 31 5.213 5.213 0 0 0 31 25.793a5.213 5.213 0 0 0-5.207-5.207zm0 7.992a2.788 2.788 0 0 1-2.57-3.86 1.226 1.226 0 0 0 .147-.298 2.787 2.787 0 0 1 2.423-1.412 2.788 2.788 0 0 1 2.785 2.785 2.788 2.788 0 0 1-2.785 2.785zM25.793 0a5.213 5.213 0 0 0-5.075 6.374l-11.525 5.78a5.198 5.198 0 0 0-3.986-1.861A5.213 5.213 0 0 0 0 15.5a5.213 5.213 0 0 0 5.207 5.207 5.198 5.198 0 0 0 3.974-1.846l1.955.995a1.21 1.21 0 0 0 1.099-2.158l-1.96-.998a5.2 5.2 0 0 0 .004-2.381l11.518-5.777a5.198 5.198 0 0 0 3.996 1.872A5.213 5.213 0 0 0 31 5.207 5.213 5.213 0 0 0 25.793 0zM5.207 18.285A2.788 2.788 0 0 1 2.422 15.5a2.788 2.788 0 0 1 2.785-2.785A2.788 2.788 0 0 1 7.992 15.5a2.788 2.788 0 0 1-2.785 2.785zM25.793 7.992a2.788 2.788 0 0 1-2.785-2.785 2.788 2.788 0 0 1 2.785-2.785 2.788 2.788 0 0 1 2.785 2.785 2.788 2.788 0 0 1-2.785 2.785z"/>
    </g>
</svg>
