<svg xmlns="http://www.w3.org/2000/svg" width="31" height="31" viewBox="0 0 31 31">
  <path fill="#238ECE" d="M25.793,20.586 C24.183,20.586 22.743,21.32 21.786,22.471 L17.735,20.456 C17.1384518,20.1713673 16.4238653,20.4176522 16.1293614,21.0093895 C15.8348575,21.6011268 16.069237,22.3197062 16.656,22.624 L20.714,24.642 C20.3663972,26.1859273 20.7389703,27.8041641 21.7267185,29.0406482 C22.7144666,30.2771323 24.2104277,30.9979663 25.793,31 C28.667376,30.9966936 30.9966936,28.667376 31,25.793 C30.9966936,22.918624 28.667376,20.5893064 25.793,20.586 L25.793,20.586 Z M25.793,28.578 C24.861532,28.5767753 23.9922072,28.1104566 23.4759849,27.3351189 C22.9597626,26.5597811 22.8648448,25.5778598 23.223,24.718 C23.2852965,24.625798 23.3347507,24.5255441 23.37,24.42 C23.8647874,23.5476627 24.7901108,23.0084317 25.793,23.008 C27.3304276,23.0096534 28.5763466,24.2555724 28.578,25.793 C28.5763466,27.3304276 27.3304276,28.5763466 25.793,28.578 L25.793,28.578 Z M25.793,0 C24.2076164,0.0021501799 22.7093672,0.725638503 21.721859,1.96590992 C20.7343508,3.20618135 20.3649136,4.82843354 20.718,6.374 L9.193,12.154 C8.2052447,10.9743094 6.74561314,10.2928306 5.207,10.293 C2.33262398,10.2963064 0.00330641741,12.625624 0,15.5 C0.00330641741,18.374376 2.33262398,20.7036936 5.207,20.7070002 C6.73897353,20.7073477 8.19308634,20.0318841 9.181,18.861 L11.136,19.856 C11.5214896,20.0523174 11.9824307,20.028066 12.3451914,19.792381 C12.7079521,19.5566959 12.9174203,19.1453834 12.8946914,18.713381 C12.8719625,18.2813785 12.6204896,17.8943174 12.235,17.698 L10.275,16.7 C10.460465,15.9173245 10.4618343,15.1022943 10.279,14.319 L21.797,8.542 C22.7848894,9.72848093 24.2490886,10.4144121 25.793,10.414 C28.667376,10.4106936 30.9966936,8.08137602 31,5.207 C30.9966936,2.33262398 28.667376,0.00330641741 25.793,0 Z M5.207,18.285 C3.66957237,18.2833466 2.42365345,17.0374276 2.422,15.5 C2.42365345,13.9625724 3.66957237,12.7166534 5.207,12.715 C6.74442763,12.7166534 7.99034655,13.9625724 7.992,15.5 C7.99034655,17.0374276 6.74442763,18.2833466 5.207,18.285 Z M25.793,7.992 C24.2555724,7.99034655 23.0096534,6.74442763 23.008,5.207 C23.0096534,3.66957237 24.2555724,2.42365345 25.793,2.422 C27.3304276,2.42365345 28.5763466,3.66957237 28.578,5.207 C28.5763466,6.74442763 27.3304276,7.99034655 25.793,7.992 L25.793,7.992 Z"/>
</svg>
