<svg xmlns="http://www.w3.org/2000/svg" width="26" height="25" viewBox="0 0 26 25">
    <path fill="#00204E" fill-rule="nonzero" d="M25.508 9.238c-.378-1.162-1.406-1.913-2.62-1.913h-5.116c-.339 0-.621-.195-.719-.496l-1.581-4.898A2.716 2.716 0 0 0 12.85.026a2.716 2.716 0 0 0-2.622 1.907l-1.58 4.894c-.099.303-.381.498-.72.498H2.812c-1.214 0-2.242.75-2.62 1.913-.379 1.166.014 2.383 1 3.1l4.139 3.006a.755.755 0 0 1 .274.846l-1.58 4.865a2.716 2.716 0 0 0 1.001 3.082 2.749 2.749 0 0 0 1.62.537c.564 0 1.129-.18 1.62-.537l4.139-3.006a.755.755 0 0 1 .89 0l4.138 3.006a2.715 2.715 0 0 0 3.24 0 2.716 2.716 0 0 0 1.002-3.082l-1.082-3.33a1 1 0 0 0-1.902.618l1.082 3.33a.735.735 0 0 1-.275.847.734.734 0 0 1-.89 0l-4.138-3.007a2.75 2.75 0 0 0-3.24 0L7.09 22.519a.735.735 0 0 1-.89 0 .735.735 0 0 1-.275-.846l1.581-4.865a2.75 2.75 0 0 0-1.001-3.082L2.367 10.72c-.416-.303-.314-.738-.273-.864.04-.125.212-.531.718-.531h5.116a2.738 2.738 0 0 0 2.622-1.881l1.58-4.895a.735.735 0 0 1 .72-.523c.129 0 .562.038.72.521l1.58 4.898a2.737 2.737 0 0 0 2.622 1.88h5.115c.507 0 .678.406.719.53.04.127.142.562-.274.865l-2.821 2.05a1 1 0 0 0 1.175 1.618l2.822-2.05c.986-.717 1.379-1.934 1-3.1z" opacity=".251"/>
</svg>
