<svg xmlns="http://www.w3.org/2000/svg" width="14" height="14" viewBox="0 0 14 14">
  <path fill="#238ECE" d="M9.814,9.169 C10.074,9.425 10.217,9.767 10.217,10.131 C10.217,10.495 10.076,10.837 9.817,11.094 L8.803,12.102 C8.70081838,12.2042063 8.56210782,12.261461 8.41758419,12.2610856 C8.27306057,12.2607102 8.1346493,12.2027358 8.033,12.1 C7.82121296,11.8866988 7.82210777,11.5421981 8.035,11.33 L8.715,10.654 L5.625,10.654 C5.03376352,10.6754497 4.56453163,11.1591532 4.56104524,11.7507684 C4.55755884,12.3423836 5.02105739,12.8315837 5.612,12.86 C5.91299519,12.86 6.157,13.1040048 6.157,13.405 C6.157,13.7059952 5.91299519,13.9500179 5.612,13.9500179 C5.0306605,13.9523651 4.47293249,13.7201887 4.065,13.306 C3.43985765,12.6767445 3.25487824,11.7330856 3.59618664,10.914383 C3.93749505,10.0956804 4.73800277,9.56286055 5.625,9.564 L8.663,9.564 L8.035,8.943 C7.89086399,8.80738313 7.83157339,8.60428796 7.88010634,8.41242426 C7.92863928,8.22056056 8.07736752,8.07008487 8.26865125,8.0193142 C8.45993497,7.96854354 8.66370882,8.02545788 8.801,8.168 L9.813,9.168 L9.814,9.169 Z M13.95,2.179 L13.95,5.749 C13.95,6.04999519 13.7059952,6.294 13.405,6.294 C13.1040048,6.294 12.86,6.04999519 12.86,5.749 L12.86,2.333 L8.126,5.277 C7.771,5.497 7.373,5.608 6.975,5.608 C6.577,5.608 6.179,5.498 5.825,5.277 L1.09,2.333 L1.09,8.473 C1.09,9.074 1.579,9.563 2.18,9.563 C2.48099519,9.563 2.725,9.80700481 2.725,10.108 C2.725,10.4089952 2.48099519,10.653 2.18,10.653 C0.976476267,10.6518974 0.00110263352,9.67652373 0,8.473 L0,2.18 C0,0.978 0.978,0 2.18,0 L11.77,0 C12.972,0 13.95,0.978 13.95,2.18 L13.95,2.179 Z M12.433,1.315 C12.2429711,1.16872971 12.0098037,1.08960049 11.77,1.08999849 L2.18,1.08999849 C1.93,1.08999849 1.7,1.174 1.517,1.315 L6.4,4.351 C6.754,4.572 7.196,4.572 7.55,4.351 L12.433,1.315 Z M13.405,7.929 C13.1040048,7.929 12.86,8.17300481 12.86,8.474 C12.86,9.074 12.371,9.564 11.77,9.564 C11.4690048,9.564 11.225,9.80800481 11.225,10.109 C11.225,10.4099952 11.4690048,10.654 11.77,10.654 C12.972,10.654 13.95,9.675 13.95,8.474 C13.95,8.17300481 13.7059952,7.929 13.405,7.929 Z"/>
</svg>
