<svg xmlns="http://www.w3.org/2000/svg" width="16" height="16" viewBox="0 0 16 16">
  <path fill="#238ECE" d="M7.822,15.375 C7.822,15.72 7.56,16 7.236,16 L3.81,16 C2.517,16 1.466,14.879 1.466,13.5 L1.466,7.448 L1,7.943 C0.893212968,8.05845728 0.743268762,8.12437478 0.586,8.125 C0.436,8.125 0.286,8.065 0.171,7.942 C-0.0575371965,7.69149648 -0.0571033609,7.30798583 0.172,7.058 L6.332,0.5 C6.64812928,0.179582847 7.07985501,-0.000208330487 7.5299696,0.0011011628 C7.98008418,0.00242501853 8.41075068,0.184738864 8.725,0.507 L13.659,5.843 C13.8864096,6.09453709 13.8842404,6.47805143 13.654,6.727 C13.5468791,6.84294395 13.3957992,6.90829279 13.2379509,6.90695993 C13.0801025,6.90562707 12.9301477,6.83773633 12.825,6.72 L7.906,1.4 C7.69208093,1.20053433 7.36044324,1.20009796 7.146,1.399 L2.637,6.2 L2.637,13.5 C2.637,14.19 3.163,14.75 3.81,14.75 L7.237,14.75 C7.561,14.75 7.823,15.03 7.823,15.375 L7.822,15.375 Z M12.48,7.875 C11.502,7.875 10.904,8.31 10.547,8.769 C10.189,8.31 9.592,7.875 8.613,7.875 C7.153,7.875 6.093,9.062 6.093,10.697 C6.093,12.416 7.461,13.503 8.667,14.462 C9.233,14.912 9.767,15.336 10.09,15.766 C10.201,15.914 10.37,16 10.547,16 C10.7277104,15.9984303 10.8970903,15.9117019 11.004,15.766 C11.224,15.474 11.524,15.206 11.818,14.96 C12.072957,14.7366823 12.1150598,14.3555872 11.915,14.082 C11.8239706,13.9531203 11.682956,13.8684436 11.5264151,13.848662 C11.3698743,13.8288805 11.2122282,13.8758162 11.092,13.978 C10.9042936,14.1337676 10.7228186,14.296895 10.548,14.467 C10.199,14.121 9.791,13.797 9.368,13.46 C8.334,12.638 7.266,11.788 7.266,10.697 C7.266,9.757 7.807,9.125 8.613,9.125 C9.135,9.125 9.503,9.313 9.736,9.7 C9.921,10.006 9.96,10.332 9.963,10.364 C9.983,10.693 10.238,10.949 10.547,10.949 C10.856,10.949 11.111,10.693 11.131,10.364 C11.134,10.332 11.173,10.006 11.358,9.7 C11.591,9.313 11.958,9.125 12.481,9.125 C13.287,9.125 13.828,9.757 13.828,10.697 C13.828,11.221 13.576,11.733 13.033,12.31 C12.8041799,12.5602448 12.8041799,12.9437552 13.033,13.194 C13.1389774,13.3106305 13.2891915,13.3772104 13.4467791,13.3774007 C13.6043668,13.3775911 13.7547411,13.3113742 13.861,13.195 C14.35,12.675 15,11.85 15,10.697 C15,9.062 13.94,7.875 12.48,7.875 Z" transform="translate(.5)"/>
</svg>
