<svg xmlns="http://www.w3.org/2000/svg" width="14" height="14" viewBox="0 0 14 14">
    <path fill="#FFFFFF" fill-rule="nonzero" d="M9.814 9.169c.26.256.403.598.403.962s-.141.706-.4.963l-1.014 1.008a.543.543 0 0 1-.77-.002.545.545 0 0 1 .002-.77l.68-.676H5.625a1.104 1.104 0 0 0-.013 2.206.545.545 0 1 1 0 1.09 2.159 2.159 0 0 1-1.547-.644 2.195 2.195 0 0 1 1.56-3.742h3.038l-.628-.621a.545.545 0 1 1 .766-.775l1.012 1zm4.136-6.99v3.57a.545.545 0 1 1-1.09 0V2.333L8.126 5.277c-.355.22-.753.331-1.151.331s-.796-.11-1.15-.331L1.09 2.333v6.14c0 .601.489 1.09 1.09 1.09a.545.545 0 1 1 0 1.09A2.182 2.182 0 0 1 0 8.473V2.18C0 .978.978 0 2.18 0h9.59c1.202 0 2.18.978 2.18 2.18zm-1.517-.864a1.084 1.084 0 0 0-.663-.225H2.18c-.25 0-.48.084-.663.225L6.4 4.351c.354.221.796.221 1.15 0l4.883-3.036zm.972 6.614a.545.545 0 0 0-.545.545c0 .6-.489 1.09-1.09 1.09a.545.545 0 1 0 0 1.09c1.202 0 2.18-.979 2.18-2.18a.545.545 0 0 0-.545-.545z"/>
</svg>
