<svg xmlns="http://www.w3.org/2000/svg" width="32" height="32" viewBox="0 0 32 32">
  <g fill="#FFF" stroke="#FFF" stroke-width="1.2" transform="translate(1 1)">
    <path d="M22.1320645,18.9984516 C21.0285161,17.8949677 19.8681935,16.9802581 19.8193548,16.941871 C19.6267742,16.7905806 19.3514839,16.8068387 19.1781935,16.980129 L17.8102581,18.348129 L15.1381935,15.6760645 C14.9491613,15.4871613 14.6428387,15.4871613 14.453871,15.6760645 C14.2649032,15.8650968 14.2649032,16.1714194 14.453871,16.3603871 L17.468129,19.3745806 C17.6571613,19.5634839 17.9634839,19.5634839 18.1524516,19.3745806 L19.554129,17.9728387 C19.9753548,18.3210968 20.7325806,18.9674839 21.4478065,19.6827742 C22.1652258,20.400129 22.8132903,21.1596774 23.1608387,21.5801935 C22.5107742,22.2132258 21.2910323,23.2316129 20.3837419,23.3152258 C18.5185161,23.4874194 14.9914194,21.3816129 11.8049677,18.1952258 C8.61845161,15.0088387 6.51303226,11.4810968 6.68490323,9.61632258 C6.76851613,8.70903226 7.78703226,7.48916129 8.42,6.83922581 C8.84019355,7.18645161 9.59903226,7.83393548 10.3173548,8.55232258 C11.0326452,9.26754839 11.6790323,10.0247097 12.0272903,10.4460645 L10.6256129,11.8476774 C10.5348387,11.9384516 10.483871,12.0614839 10.483871,12.189871 C10.483871,12.3182581 10.5348387,12.4412258 10.6255484,12.5320645 L12.0853548,13.991871 C12.2743871,14.1807742 12.5807097,14.1807742 12.7696774,13.991871 C12.9586452,13.8028387 12.9586452,13.4965161 12.7696774,13.3075484 L11.652,12.1899355 L13.0199355,10.8220645 C13.1932258,10.6487742 13.2096129,10.3734839 13.0582581,10.1809032 C13.019871,10.1320645 12.1052258,8.97174194 11.0016774,7.86812903 C9.89812903,6.76458065 8.73774194,5.84993548 8.68890323,5.81154839 C8.50219355,5.66496774 8.23690323,5.67509677 8.06225806,5.83587097 C7.83851613,6.04167742 5.87174194,7.89419355 5.72116129,9.52767742 C5.52167742,11.6924516 7.69154839,15.4507742 11.1205806,18.8797419 C14.404,22.1630968 17.9889032,24.292 20.1879355,24.2918065 C20.2854839,24.2918065 20.3805806,24.2876129 20.4725161,24.2791613 C22.106,24.1285161 23.9585161,22.1618065 24.1643871,21.9380645 C24.3250323,21.7634194 24.3353548,21.4980645 24.1887097,21.3114194 C24.1502581,21.2623226 23.2356129,20.1020645 22.1320645,18.9984516 Z"/>
    <path d="M25.6065806,4.39341935 C22.7734194,1.56032258 19.0066452,0 15,0 C10.9933548,0 7.22658065,1.56032258 4.39341935,4.39341935 C1.56032258,7.22658065 0,10.9933548 0,15.0000645 C0,17.9525806 0.854258065,20.8004516 2.47283871,23.2520645 L0.641290323,28.7465806 C0.583354839,28.9204516 0.628580645,29.1121935 0.758193548,29.2418065 C0.887806452,29.3713548 1.07941935,29.4165806 1.25341935,29.3587097 L6.74793548,27.5272258 C9.19948387,29.1457419 12.0473548,30 15,30 C19.0066452,30 22.7734194,28.4396774 25.6065806,25.6065806 C28.4396774,22.7734839 30,19.0067097 30,15.0000645 C30,10.9933548 28.4396774,7.22658065 25.6065806,4.39341935 Z M15,29.0322581 C12.162129,29.0322581 9.42806452,28.1889677 7.09335484,26.5934839 C7.01193548,26.537871 6.91664516,26.5090968 6.82032258,26.5090968 C6.76896774,26.5090968 6.71729032,26.5172903 6.66735484,26.5339355 L1.86541935,28.1345806 L3.46612903,23.3326452 C3.51393548,23.1890968 3.49193548,23.0314839 3.40658065,22.9065806 C1.81103226,20.571871 0.967741935,17.8378065 0.967741935,15.0000645 C0.967741935,7.26258065 7.26258065,0.967741935 15,0.967741935 C22.7374194,0.967741935 29.0322581,7.26258065 29.0322581,15.0000645 C29.0322581,22.7374839 22.7374194,29.0322581 15,29.0322581 Z"/>
  </g>
</svg>
